<?xml version="1.0" encoding="utf-8"?>
<!-- Generator: Adobe Illustrator 22.0.1, SVG Export Plug-In . SVG Version: 6.00 Build 0)  -->
<svg version="1.1" id="Слой_1" xmlns="http://www.w3.org/2000/svg" xmlns:xlink="http://www.w3.org/1999/xlink" x="0px" y="0px"
	 viewBox="0 0 234.2 227.1" style="enable-background:new 0 0 234.2 227.1;" xml:space="preserve">
<style type="text/css">
	.st0{fill-rule:evenodd;clip-rule:evenodd;fill:#FFED00;}
	.st1{fill:#1C1C1B;}
	.st2{fill-rule:evenodd;clip-rule:evenodd;fill:#009640;}
	.st3{fill-rule:evenodd;clip-rule:evenodd;fill:#FFFF3B;}
	.st4{fill:#121415;}
	.st5{fill:#FFFFFF;}
	.st6{fill-rule:evenodd;clip-rule:evenodd;fill:#FFFFFF;}
	.st7{fill-rule:evenodd;clip-rule:evenodd;fill:#1C1C1B;}
	.st8{fill:#FFED00;}
</style>
<g>
	<path class="st0" d="M21,199l-8-8.2l-0.1-0.1l-2.1,8.2c1-1.4,3.9-0.2,9.1,6.9C19.9,205.8,19.5,204.7,21,199L21,199z"/>
	<path class="st1" d="M20.5,199.1l-7.3-7.5l-1.6,6.2c0.2,0,0.5,0,0.8,0c0.5,0.1,1.2,0.4,1.9,1c1.3,1,3,2.7,5.1,5.4
		C19.5,203.3,19.8,201.6,20.5,199.1L20.5,199.1z M13.4,190.4l8,8.2c0.1,0.1,0.2,0.3,0.1,0.5c-1.5,5.6-1.1,6.5-1.1,6.5
		c0.1,0.2,0,0.4-0.2,0.6c-0.2,0.2-0.5,0.1-0.7-0.1c-2.5-3.3-4.4-5.3-5.8-6.4c-0.6-0.5-1.1-0.7-1.6-0.8c-0.3-0.1-0.6,0-0.8,0.1
		c-0.1,0-0.1,0.1-0.2,0.2c-0.1,0.2-0.3,0.2-0.5,0.2c-0.3-0.1-0.4-0.3-0.4-0.6l2.1-8.2c0-0.1,0.1-0.2,0.1-0.2
		C12.8,190.2,13.1,190.2,13.4,190.4L13.4,190.4L13.4,190.4z"/>
	<path class="st0" d="M31.9,196.3c-1.9,2.9-4.6,10.4-5.3,13.3c0.2-2.9-2.1-6.7-5.4-10.5L21,199l-8-8.2c-5.5-5.4-9.4-10.1-9.4-10.1
		c-1.8-2.4-1.4-5.3,0.1-8.4l0.4-0.5c8.1-8.1,13.5,0.7,15.1,4.6C22.3,184.1,26.7,190.7,31.9,196.3L31.9,196.3z M3.6,172.3L3.6,172.3
		L3.6,172.3z"/>
	<path class="st1" d="M32.4,196.6c-0.8,1.2-1.8,3.4-2.7,5.7c-1.1,2.9-2.1,5.9-2.5,7.5c-0.1,0.3-0.3,0.4-0.6,0.4
		c-0.2-0.1-0.4-0.3-0.4-0.5c0.1-1.3-0.4-2.9-1.3-4.6c-1-1.8-2.4-3.6-4-5.5l-0.2-0.2l-8-8.2C7.1,185.7,3.2,181,3.2,181l0,0
		c-1-1.3-1.4-2.7-1.3-4.2c0.1-1.5,0.8-4.2,1.8-5.3l0.1,0c1.4-1.4,2.8-2.4,4.1-2.9c1.7-0.7,3.2-0.7,4.6-0.3c1.4,0.4,2.5,1.3,3.6,2.3
		c1.8,1.8,3,4.1,3.7,5.7c1.5,3.7,3.3,7.2,5.4,10.5c2.2,3.4,4.6,6.5,7.3,9.3C32.5,196.2,32.5,196.4,32.4,196.6L32.4,196.6z M28.7,202
		c0.9-2.2,1.8-4.2,2.6-5.6c-2.6-2.8-5-5.9-7.1-9.2c-2.1-3.3-4-6.8-5.5-10.6c-0.6-1.5-1.8-3.7-3.4-5.4c-0.9-0.9-2-1.7-3.2-2
		c-1.2-0.4-2.5-0.3-3.9,0.2c-3.3,1.3-5.2,3.7-5.3,7.3c-0.1,1.3,0.3,2.5,1.1,3.6c0.2,0.3,4.1,4.9,9.4,10.1c2.6,2.6,5.9,5.7,8.2,8.4
		c1.7,2,3.1,3.9,4.1,5.7c0.5,0.9,0.9,1.8,1.1,2.7C27.3,205.7,28,203.8,28.7,202L28.7,202z"/>
	<path class="st2" d="M117.2,15.7c-0.5-3-3.3-14.9-16.9-14.7H43.2v39.9c16.9,3.9,18.1,38.6,0,43.5v66.5c0,14.9,6.1,14.9,14.8,14.9
		l42.1,0c20.6,0,13.6,0,34.2,0l42.1,0c8.7,0,14.8,0,14.8-14.9V84.5c-18.1-4.9-17-39.6,0-43.5V1h-57.1
		C120.5,0.8,117.7,12.6,117.2,15.7L117.2,15.7z"/>
	<path class="st1" d="M116.7,15.7c-0.2-1.5-1.1-5.1-3.5-8.3c-2.4-3.2-6.4-6-12.9-5.9l-56.6,0v39.1c4.4,1.1,7.7,4.3,9.9,8.5
		c2,3.8,3.1,8.5,3.2,13.1c0.1,4.7-0.8,9.4-2.8,13.4c-2.2,4.4-5.6,7.9-10.4,9.3v66.1c0,7.3,1.5,10.9,3.9,12.6
		c2.5,1.8,6.1,1.8,10.4,1.8l42.1,0l34.2,0l42.1,0c4.3,0,7.9,0,10.4-1.8c2.5-1.8,3.9-5.4,3.9-12.6V84.8c-4.8-1.4-8.2-4.9-10.4-9.3
		c-1.9-4-2.8-8.7-2.8-13.4c0.1-4.7,1.2-9.3,3.2-13.1c2.2-4.2,5.5-7.3,9.9-8.5V1.5l-56.6,0c-6.6-0.1-10.6,2.7-12.9,5.9
		c-2.4,3.2-3.2,6.9-3.5,8.3l-0.5,2.9L116.7,15.7L116.7,15.7z M114,6.8c1.7,2.3,2.6,4.8,3.2,6.6c0.5-1.8,1.5-4.3,3.2-6.6
		c2.5-3.4,6.8-6.4,13.7-6.3l57.5,0v40.8l-0.4,0.1c-4.3,1-7.5,4-9.7,8.1c-1.9,3.7-3,8.2-3.1,12.7c-0.1,4.5,0.8,9.1,2.7,12.9
		c2.1,4.3,5.5,7.6,10.1,8.9l0.4,0.1v66.8c0,7.6-1.6,11.5-4.4,13.4c-2.7,2-6.5,2-10.9,2l-42.1,0l-34.2,0l-42.1,0c-4.4,0-8.2,0-10.9-2
		c-2.7-2-4.4-5.8-4.4-13.4V84.1l0.4-0.1c4.7-1.3,8-4.6,10.1-8.9c1.9-3.8,2.7-8.4,2.7-12.9c-0.1-4.5-1.1-9-3.1-12.7
		c-2.1-4-5.4-7.1-9.7-8.1l-0.4-0.1V0.5h57.5C107.3,0.4,111.5,3.4,114,6.8L114,6.8z"/>
	<path class="st3" d="M117.2,15.6c-0.5-3.1-3.4-14.8-16.9-14.6H63.9l0.6,164.8l35.6,0.1c15.3,0,16.9,9,17.1,10.9l0,0.3c0,0,0,0,0,0
		l0-0.3c0.2-1.9,1.8-10.8,17.1-10.9l35.6-0.1L170.5,1h-36.4C120.6,0.8,117.7,12.5,117.2,15.6L117.2,15.6z"/>
	<path class="st1" d="M116.7,15.7c-0.3-1.5-1.1-5.1-3.5-8.3c-2.4-3.2-6.4-6-12.9-5.9l-35.9,0L65,165.3l35.1,0.1
		c5.7,0,9.5,1.2,12.1,2.9c3,1.9,4.3,4.4,4.9,6.2c0.6-1.8,2-4.3,4.9-6.2c2.6-1.7,6.4-2.9,12.1-2.9l35.1-0.1L170,1.5l-35.9,0
		c-6.5-0.1-10.5,2.7-12.9,5.9c-2.4,3.2-3.2,6.8-3.5,8.3c0,0.3-0.3,0.4-0.6,0.4C116.9,16.1,116.7,15.9,116.7,15.7L116.7,15.7z
		 M114,6.8c1.7,2.3,2.7,4.8,3.2,6.6c0.5-1.9,1.5-4.3,3.2-6.6c2.5-3.4,6.7-6.4,13.7-6.3l36.4,0c0.3,0,0.5,0.2,0.5,0.5l-0.6,164.8
		c0,0.3-0.2,0.5-0.5,0.5l-35.6,0.1c-5.5,0-9.1,1.2-11.6,2.7c-4.2,2.7-4.9,6.5-5,7.6l0,0.3c0,0.7-1,0.6-1,0l0-0.3
		c-0.1-1.2-0.8-5-5-7.6c-2.5-1.6-6.1-2.7-11.6-2.7l-35.6-0.1c-0.3,0-0.5-0.2-0.5-0.5L63.4,1c0-0.3,0.2-0.5,0.5-0.5h36.4
		C107.2,0.4,111.4,3.4,114,6.8L114,6.8z"/>
	<path class="st4" d="M114.7,68.2c-0.3-0.8-1.2-2.5-1.2-2.5s-1.6,0.6-1.8,0.7c-0.2,0-0.8,0-1.1,0.1c-0.2,0.1-1.4,0.3-1.7,0.2
		c0,0,0.5-1.5-0.7-2.8c0.3,1,0.7,2.8,0.2,2.9c-0.6,0.4-2.1,0.7-2.4,0.7c-0.2,0-2.3,0.9-2.4,0.9c-0.2,0-0.4-0.5-0.4-0.5
		s-0.3,0.5-0.4,0.5c-0.2,0.1-2.2,0.9-3.6,1.1c-2.5,0.7-2.4,0.5-3.5,0.7c-1.1,0.2-2.2,0.5-3,0.8c-0.8,0.3-0.9,0-1.6,0.3
		c-0.7,0.3-0.9,0.8-1.5,0.7c-0.5-0.1-2.9,0.3-3.2,0.7c-0.4,0.3,0.1,0.9,0,1.2c-0.1,0.3-0.1,1-0.6,1c-0.4,0-0.5-1-0.5-1
		s-0.1-0.7-0.1-0.8s-0.2-0.2-0.5,0.4c-0.1,0.5,0.3,1.3-0.5,1.6c-0.8,0.2-0.4-2.5-0.4-2.5l-0.1-0.1c0,0-0.6,1.2-1,1.1
		c-0.3-0.2-0.6-0.7,0.2-1.6c0.8-0.9,1.8-1.1,2.5-1.2c0,0,0.5-0.7,1.2-0.8c0.7-0.1,0.8,0.1,2.1,0c0,0,2.3-0.3,3.9-1.3
		c1.6-0.9,4.4-2.4,6.9-3.1c2.5-0.7,7.1-2.2,7.3-2.3c0.2-0.1,0.3-0.2,0.3-0.2s1.5-0.9,2.1-1.2c0.6-0.3,1.2-1.5,1.7-1.9
		c1.6-1.3,4.3-2.4,4.3-2.4s0-0.2-0.2-0.2c-0.2,0-0.8,0.7-1.3,0.7c-0.5,0-0.3-1.1-0.3-1.4c0-0.3,0.1-1.5,0-1.7
		c-0.2-0.2-0.5-0.4-0.6-1c-0.6-1.9,0.4-3.8,0.5-3.9c0.1-0.2-0.2-0.3-0.1-0.8c0.2-0.4,2.1-2.7,4.8-2.8c2.7-0.1,4.8,0.9,5.4,3.8
		c0,0,0.3,1.2-0.1,1.9c-0.4,0.6-0.6,1.3-0.6,1.5c0.1,0.2,0,0.2-0.5,1c-0.5,0.8-0.7,1.2-0.7,1.2s-1,0.2-1.5,0.4
		c-0.5,0.2-1.7,0.9-1.7,0.9s2.5-1,3.2-1c0,0,1-1.8,1.2-1.8c0.2,0,0.6,1,0.7,1.2c0.1,0.2,0.6,1.1,0.6,1.1s1,0,1.2,0.2
		c0.2,0.2,0.9,0.7,1.1,0.7c0.2,0.1,1,0,1.2,0.2c0.2,0.2,0.4-0.3,0.7-0.1c0.4,0.2,1,0.4,1.3,0.5c0.3,0,0.7,0,1.6,0.1
		c0.9,0.2,3.4,1.5,4.6,1.8c1.1,0.3,4.2,0.7,4.2,0.7s3.3-0.4,4.5-0.2c1.1,0.2,4.6,1.3,5.1,1.5c0.5,0.2,4,0.6,4.5,0.5
		c0.5-0.1,2.3-1.6,2.8-1.4c0.5,0.1,1.3,0.7,1.9,0.8c0.6,0.2,1.3,0.1,1.6,0.2c0.3,0.1,1.7,1,1.9,1.3c0.2,0.3-0.2,0.6-0.5,0.6
		c-0.3-0.1-0.9-0.6-1-0.6c-0.1,0,0.6,1.1,0.6,1.6c0,0.5,0.1,1-0.3,1c-0.6,0-1.3-2.3-1.3-2.3s-0.8,0.3-0.8,0.4c0,0.1,1,0.3,1.1,0.8
		c0.1,0.5,0,0.6-0.3,0.5c-0.3-0.1-1.2-0.9-1.2-0.9s-0.7,0.8-1.1,0.8c0,0-0.1,0.1-0.7,0.1c-0.7,0-3.1-0.4-3.3-0.5
		c-0.2,0-0.8,0.1-1.2-0.3c-0.9,0-4.2,0-4.6,0.1c-0.3,0.1-0.9,0.1-1.6-0.1c-0.6-0.2-2.7-0.5-3-0.5c-0.4-0.1-1.1-0.5-1.2-0.5
		c-0.2,0-0.7,0.3-0.9,0.3c-0.3-0.1-0.9-0.4-1-0.9c0,0.1-0.7,0.1-0.7,0.1s-2,1.3-2.6,1.7c-0.5,0.4-1,0.6-1.2,0.7
		c-0.2,0.1-1.1,0.3-1.1,0.3l-2.7,2.1c0,0-1.2,1.7-2.1,3.5c-0.8,1.8-3.2,9.3-3.1,9.9c0.1,0.7,1.3,3.7,1.5,4.8
		c0.1,1.1-0.3,3.2-0.3,3.2s1.8,1.8,2,2.1c0.3,0.4-0.8,0.1-1.6,0.5c-0.8,0.4,1.5-0.4,2,0.5c0.5,0.9,1,2,1,2s-1.9-0.4-3,0.3
		c-1.2,0.7-2.4,1.7-3.2,2.9c0,0,2.3-2.5,3.5-2.7c1.2-0.2,2.7-0.2,2.7-0.2l0.3,0.5c0,0,1.8-2.2,4.8-3.2c3-0.9,7-1.3,8.2-1.7
		c1.2-0.4,3.8-1.2,3.8-1.2s2.2-3.5,2.8-3.9c0.6-0.4,1.7,0.2,2.6,0.8c0.9,0.6,7.5,4,7.8,5.2c0.3,1.3-0.5,1.9-2.4,2
		c-1.5-0.1-3.4-0.9-4.1-1c-0.7,0-3,0.2-3.4,0.4c-0.4,0.1-2.4,0.1-3.3,0.3c-0.9,0.2-2.1,1-2.4,0.8c-0.3-0.2-0.3-0.5-0.3-0.5
		s-6.6,3.4-8.3,4.4c-1.7,1-5,3.2-5,3.2s-1.4,1.2-2.2,1.3c-0.8,0.1-5.6-2.8-5.6-2.8l-4.3-2.7l-5.5-4c0,0,4.2,3.8,5.1,4.4
		c0.9,0.6-5.4,5.5-6.1,5.7c-0.7,0.2-2.9-3-4.8-3.9c-2-1-1.4-0.5-1.4-0.5s2,1,3,2.2c1,1.2,2.7,2.5,2.7,2.5s-2.7,0.2-4.3,2.5
		c-1.6,2.3-2.7,5.6-4.6,7.2c-2,1.6-7.6,5.4-7.6,5.4s-4.9,7.7-7.5,6.8c-1.2-0.5-2.3-5.2-2.8-6.3c-0.5-1.1-1.4-3.7-1.1-4.5
		c0.4-0.8,1.6-0.4,1.7-0.2c0.1,0.2,2.4,2.7,3.4,2.7c1,0,2.3,0.5,4.2-1.1c1.8-1.6,3.7-5,5.5-7c1.8-2,3.3-5.8,3.4-6.3
		c0.2-0.4,0.4-1.1,0.7-1.6c0.3-0.5,6-6.2,7.9-8.1c1.9-1.8,2.5-2.8,2.5-2.8s0.2-3.4,0.8-4.5c0.2-0.5-0.4-0.8-0.4-0.8s1.1-1.3,2.3-1.8
		c1.2-0.4,3.1-0.8,3.1-0.8s3.1,1,3.9,1.4c0.8,0.5,2.6,1,2.6,1s-2.1-2.3-6.4-2.8c-0.3,0-0.5,0-0.8,0.1c-3.2,0.4-4.8,2.4-4.8,2.4
		s0.4-3.2,0-4C113.7,77.3,113.6,66.8,114.7,68.2L114.7,68.2z"/>
	<path class="st5" d="M127.5,92.6c0,0-0.4-0.8-2.7-3.7c-2.2-2.8-5.1-7.4-5.1-7.4H119c0,0,2.1,6.2,3.6,7.8c1.5,1.6,2.9,3.3,2.9,3.3
		s-3.8-2.2-6.5-9.2c0-0.3-0.4-1.7-0.4-1.7v1.4L118,82l-1,0.4c0,0,0.5,1.4,1.7,2.6c1.2,1.2,1.9,3.3,2.2,3.9c0.3,0.6,3.5,4.4,3.5,4.4
		l1.9-0.6c0,0-2.7-3.2-3.6-4.7c-0.9-1.5-1.4-2.1-1.7-4l0.4,0.5c0,0,0,1.1,1.7,3.6c1.7,2.6,3.8,4.6,3.8,4.6L127.5,92.6L127.5,92.6z"
		/>
	<path class="st5" d="M110.5,66.1c0,0,1.6-0.3,1.7-0.8c0.1-0.5-0.2-1.5-0.8-1.6c-0.6-0.2-1.3-0.7-1.3-0.7s1.1-0.1,2.2,0.6
		c1,0.7,0.9,1.2,1.3,1.5c0.4,0.2,1.4,0.4,2,0.4c0.6-0.1,1.6-0.9,1.6-0.9s-1-1.4-1.6-1.5c-0.6-0.1-3-0.8-3.1-1
		c-0.1-0.1,2.7,0.6,2.8,0c0.1-0.6-0.6-0.9-0.6-0.9s0.9-0.3,1.6,0.8c0.6,1.1,1.8,2.3,1.8,2.3s-1,0.8-0.3,1.4c0.7,0.6,1.8,1.5,2,2.3
		c0.2,0.8-0.9-0.7-1.4-0.6c-0.5,0-2-0.7-2.3-0.6c-0.3,0.1-0.9-0.4-1-0.1c-0.1,0.3,0.2,1.5,1.5,2.3c1.3,0.8,2.7,3.1,3.8,3.8
		c1.1,0.7,3.1,5,3.1,5l-2.1-1.2c0,0-0.7-1.8-1.1-2.4c-0.4-0.6-3.4-4.6-3.7-4.7c-0.3-0.1-1.5-1.1-1.5-1.1l-1.2-2.5
		c0,0-1.5,0.5-1.7,0.6c-0.2,0.1-1.2,0.1-1.2,0.1L110.5,66.1L110.5,66.1z"/>
	<path class="st5" d="M134.5,65.9c0,0,4.4-3.4,4.1-3.6C138.3,62.2,135.3,64.3,134.5,65.9L134.5,65.9z"/>
	<path class="st5" d="M132.5,66.8c0,0,4.2-4.9,3.7-5C135.8,61.7,132.6,66.1,132.5,66.8L132.5,66.8z"/>
	<path class="st5" d="M132.2,65.9c0,0,2.4-3.4,2.2-3.9C134.2,61.6,132.2,65.9,132.2,65.9L132.2,65.9z"/>
	<path class="st5" d="M131.9,64.7c0,0,2.2-4.3,1.9-4.3c-0.4,0-1,0.1-1.3,1.1c-0.3,1-0.9,2.8-0.9,2.8L131.9,64.7L131.9,64.7z"/>
	<path class="st5" d="M132.5,67.5c0,0,0.2-4.4-1.7-4.9c-1.9-0.6,1.6,1.6,1.4,4.9H132.5L132.5,67.5z"/>
	<path class="st5" d="M118.7,96.1c0,0-4.5,1.3-5.9,1.5c-1.4,0.2-1.9,0.6-1.8,0.9c0.1,0.3,6-0.6,6.6-0.8c0.6-0.1-1,1.5-2.5,1.7
		c-1.5,0.2-2.7-0.3-3.3,0.4c-0.6,0.7,1.1,2.3,1.1,2.3l1,0.6c0,0,5.3-3.6,5.7-4.6c0.4-1,0-0.9,0-0.9L118.7,96.1L118.7,96.1z"/>
	<path class="st5" d="M108.7,96.8c0,0,7.6-1.1,7.9-1.8c0.3-0.6-3.9-0.9-3.9-1.3c-0.1-0.4,3.2,0,3.7,0.2c0.5,0.1,1.6,1.4,1.6,1.4
		S107.4,97.7,108.7,96.8L108.7,96.8z"/>
	<path class="st5" d="M155.4,87.8c0,0,0.6,2.2,0.6,2.6c0.1,0.4-1.1,0.5-1.1,0c0-0.5-0.2-3-0.2-3L155.4,87.8L155.4,87.8z"/>
	<path class="st5" d="M154.3,87.4c0,0,0.4,3.4,0,3.3c-0.4,0-0.9-1.6-0.8-2.4c0.1-0.8,0-1.3,0-1.3L154.3,87.4L154.3,87.4z"/>
	<path class="st5" d="M90.6,117c0,0-1.5,2.8-1.9,2.9c-0.4,0-0.6-0.3-0.4-0.5c0.2-0.2,1.4-2,1.3-2.1c-0.1-0.1-1.2,1.4-1.2,1.4
		s-0.6-0.1-0.4-0.5c0.2-0.5,1-1.5,1-1.6c-0.1-0.1-1.1,1.4-1.1,1.4s-0.4,0-0.5-0.2c-0.1-0.1,0-0.7,0-0.7s1-1.1,0.8-1.4
		c-0.2-0.3-1.1,0.5-1.2,0.4c-0.1-0.1-0.6-1.9-0.5-2c0.1-0.1,0.4-0.5,0.9,0c0.6,0.5,1.5,1.5,2.2,1.9C90.4,116.4,90.6,117,90.6,117
		L90.6,117z"/>
	<path class="st4" d="M82.6,125.9c0,3.2-2.6,5.8-5.8,5.8c-3.2,0-5.8-2.6-5.8-5.8c0-3.2,2.6-5.8,5.8-5.8
		C80,120.1,82.6,122.7,82.6,125.9L82.6,125.9z"/>
	<path class="st5" d="M74.8,124.1c0,0-0.2-1,0-1.5c0.2-0.5,0.6-1.2,0.4-1.4c-0.2-0.1-2,1-2.7,2.5c-0.7,1.5-1.2,2.1-0.9,2.2
		c0.2,0.1,2-2,2.5-2C74.6,123.9,74.8,124.1,74.8,124.1L74.8,124.1z"/>
	<path class="st5" d="M72,126.4c0,0,1.7-1.8,2.1-1.7c0.4,0.1,0.1,0.4,0,1c-0.1,0.6,0.1,3.4,0,3.5c0,0.1-1.3,0-1.3,0L72,126.4
		L72,126.4z"/>
	<path class="st5" d="M77.7,124.7c0,0,0,1.2-0.1,2.3c-0.1,1.1-0.5,1.6-0.5,1.8c0.1,0.2,0.4,0.5,0.8,0.3s1.9-1.7,2-1.9
		c0.1-0.2-0.7-3.2-0.8-3.1C78.8,124.2,77.7,124.7,77.7,124.7L77.7,124.7z"/>
	<path class="st5" d="M80.6,122.6c0,0,0.8,0.8,0.5,2.1c-0.2,1.3-0.6,2.7-2.1,4c-1.5,1.3-2,0.8-2,0.8s-0.2,0.1-0.1,0.3
		c0.1,0.2,0.3,1.3,0.1,1.6c-0.2,0.3-0.3,0.3-0.3,0.3s1.8,0,3.2-1c1.4-1-0.7,0.3-0.8,0c-0.1-0.3,1.4-2.6,1.9-3.8
		C81.5,125.8,82.2,123.3,80.6,122.6L80.6,122.6z"/>
	<path class="st2" d="M21.2,199.2c4.7,5.5,7.5,10,3.8,13.7c-2.4,2.2-6.9,1.5-9.3-0.6c-7.1-6.2-8.5-23.5,4-6.7
		c0.2,0.3,0.2,0.2,0.1-0.1c-0.2-0.6,0-2.3,1.2-6.5L21.2,199.2L21.2,199.2z"/>
	<path class="st1" d="M21.6,198.8c2.4,2.8,4.3,5.3,5.2,7.7c0.9,2.5,0.7,4.7-1.4,6.7l0,0c-1.2,1.1-2.9,1.6-4.7,1.4
		c-6.1-0.4-10.3-7.5-10.8-13.1c-0.1-1.2,0-2.2,0.4-2.8c0.5-0.8,1.2-1.1,2.3-0.8c1.5,0.4,3.7,2.3,6.7,6.2c0-0.2,0.1-0.4,0.1-0.7
		c0.2-1,0.5-2.6,1.1-4.7c0.1-0.3,0.3-0.4,0.6-0.3c0.1,0,0.2,0.1,0.3,0.2L21.6,198.8L21.6,198.8z M25.8,206.9
		c-0.8-2.1-2.4-4.3-4.5-6.9c-0.4,1.6-0.7,2.8-0.8,3.7c-0.2,0.9-0.2,1.4-0.1,1.6c0.3,0.8-0.2,1.5-1,0.5c-3.3-4.5-5.6-6.5-7-6.9
		c-0.6-0.2-1,0-1.2,0.3c-0.3,0.5-0.4,1.3-0.3,2.3c0.4,5.1,4.2,11.8,9.8,12.2c1.5,0.1,2.9-0.2,3.9-1.2l0,0
		C26.4,210.8,26.6,208.9,25.8,206.9L25.8,206.9z"/>
	<path class="st2" d="M117.1,200.1c-19.4-0.1-42.5-4.7-58.6-15.8c-8.7-6-15.2-12.8-19.1-22.9c-2.5-6.3-7.7-14.7-16.7-7.2
		c0,0-13.5,9.3-19.1,18.1l0.4-0.5c8.1-8.1,13.5,0.7,15.1,4.6c15.8,38.8,62.7,49.5,97.9,49.7h0c35.2-0.2,82.1-10.9,97.9-49.7
		c1.6-3.9,7-12.7,15.1-4.6l0.4,0.5c-5.5-8.8-19.1-18.1-19.1-18.1c-9.1-7.5-14.3,0.9-16.7,7.2c-3.9,10.1-10.4,16.9-19.1,22.9
		C159.6,195.4,136.6,200,117.1,200.1L117.1,200.1z"/>
	<path class="st1" d="M117.1,200.5c-10.4,0-21.8-1.4-32.7-4.3c-9.5-2.6-18.6-6.4-26.2-11.6c-4.4-3-8.2-6.2-11.4-10
		c-3.2-3.7-5.9-8-7.9-13.1c-0.9-2.2-2.1-4.6-3.6-6.6c-1.1-1.3-2.3-2.3-3.7-2.9c-1.4-0.5-3-0.6-4.8,0.2c-1.2,0.5-2.4,1.2-3.7,2.3
		l-0.1,0c-0.6,0.4-10.4,7.3-16.5,14.6c0.5-0.3,0.9-0.5,1.3-0.7c1.7-0.7,3.2-0.7,4.6-0.3c1.4,0.4,2.5,1.3,3.6,2.3
		c1.8,1.8,3,4.1,3.7,5.7c6.8,16.8,19.6,28.3,34.6,35.9c19.6,9.9,43.1,13.4,62.9,13.5l0.1,0c19.8-0.1,43.3-3.6,62.8-13.5
		c15.1-7.6,27.8-19.1,34.6-35.9c0.6-1.6,1.9-3.9,3.7-5.7c1-1,2.2-1.9,3.6-2.3c1.4-0.4,2.9-0.4,4.6,0.3c0.4,0.2,0.9,0.4,1.3,0.7
		c-6.2-7.6-16.5-14.6-16.5-14.6l0,0c-1.3-1.1-2.6-1.9-3.7-2.3c-1.8-0.7-3.4-0.7-4.8-0.2c-1.4,0.5-2.7,1.6-3.7,2.9
		c-1.6,1.9-2.8,4.4-3.6,6.6c-2,5.1-4.6,9.4-7.9,13.1c-3.2,3.7-7.1,7-11.4,10c-7.6,5.2-16.6,9-26.2,11.6
		C139,199.2,127.5,200.5,117.1,200.5L117.1,200.5z M84.7,195.3c10.8,2.9,22.1,4.2,32.4,4.3c10.3,0,21.7-1.4,32.4-4.3
		c9.4-2.5,18.4-6.3,25.9-11.5c4.3-3,8.1-6.1,11.2-9.8c3.2-3.7,5.8-7.8,7.7-12.8c0.9-2.3,2.1-4.8,3.8-6.8c1.2-1.4,2.6-2.6,4.2-3.2
		c1.6-0.6,3.5-0.6,5.5,0.2c1.3,0.5,2.6,1.3,4,2.5c0.7,0.5,13.7,9.6,19.2,18.2c0.1,0.2,0.1,0.5-0.1,0.6c-0.2,0.2-0.5,0.2-0.7-0.1
		l-0.4-0.5c-1.3-1.3-2.6-2.2-3.8-2.7c-1.4-0.6-2.8-0.6-3.9-0.2c-1.2,0.4-2.2,1.1-3.2,2c-1.7,1.7-2.8,3.9-3.4,5.4
		c-6.9,17-19.8,28.7-35.1,36.4c-19.7,10-43.3,13.5-63.3,13.6l-0.1,0c-19.9-0.1-43.6-3.6-63.3-13.6c-15.2-7.7-28.1-19.4-35.1-36.4
		c-0.6-1.5-1.8-3.7-3.4-5.4c-0.9-0.9-2-1.7-3.2-2c-1.2-0.4-2.5-0.3-3.9,0.2c-1.3,0.5-2.7,1.3-3.8,2.7L4,172.6
		c-0.2,0.2-0.4,0.2-0.6,0.1c-0.2-0.1-0.3-0.4-0.2-0.7c5.4-8.6,18.5-17.8,19.2-18.2c1.4-1.2,2.8-2,4-2.5c2.1-0.8,3.9-0.8,5.5-0.2
		c1.6,0.6,3,1.7,4.2,3.2c1.7,2,2.9,4.5,3.8,6.8c1.9,5,4.5,9.2,7.7,12.8c3.2,3.7,6.9,6.8,11.2,9.8C66.3,189,75.3,192.7,84.7,195.3
		L84.7,195.3z"/>
	<path class="st6" d="M39.2,171.2L39.2,171.2C39.2,171.2,39.2,171.2,39.2,171.2c-2.4-3.6-7.2-4.6-10.8-2.3
		c-3.6,2.4-4.7,7.2-2.3,10.8l0,0.1c2.3,3.6,7.2,4.6,10.8,2.3C40.5,179.7,41.6,174.9,39.2,171.2C39.2,171.2,39.2,171.2,39.2,171.2
		L39.2,171.2z"/>
	<path class="st7" d="M32.7,174.4l3,1.4l0.1,3.1l-2.8,1.9l-2.7-1.4l-0.2-3.3L32.7,174.4L32.7,174.4z M40.4,175.6l-0.7,0.2l-1.4-1.7
		l-0.6-3.2l0.7-0.5C39.6,171.8,40.4,173.6,40.4,175.6L40.4,175.6z M40.4,175.8c-0.1,1.9-0.9,3.7-2.2,5.1l0.3-1.5l1.3-3.3L40.4,175.8
		L40.4,175.8z M37.8,181.2c-0.3,0.3-0.6,0.5-0.9,0.7c-0.5,0.3-1.1,0.6-1.7,0.8l-2.2-0.2l0.2-1.7L36,179l2.2,0.3L37.8,181.2
		L37.8,181.2z M34.5,183c-1.6,0.4-3.3,0.3-4.8-0.3l0.2-0.2C31.5,182.6,33,182.8,34.5,183L34.5,183z M29.5,182.5
		c-1.3-0.6-2.5-1.5-3.3-2.8c-0.2-0.3-0.4-0.6-0.5-0.9c0,0,2.2,1.6,2.4,1.8l1.6,1.8L29.5,182.5L29.5,182.5z M25,174.4
		c0.3-1.7,1.1-3.3,2.3-4.5l0.8-0.2l0.7,1.4l-1.4,2.9l-1.9,1.3L25,174.4L25,174.4z M29.4,168.5c1.2-0.6,2.6-0.8,3.9-0.7l1,1.5
		l-2.3,1.6l-3,0l-0.7-1.4L29.4,168.5L29.4,168.5z M39.3,171.1c-2.4-3.7-7.3-4.7-11-2.3c-3.7,2.4-4.7,7.3-2.3,11
		c2.4,3.7,7.3,4.7,11,2.3C40.7,179.7,41.7,174.9,39.3,171.1L39.3,171.1z M25.8,178.6l2.3,1.7l1.9-1.1l-0.2-3.2l-2.3-1.8l-1.9,1.3
		C25.6,176.4,25.6,177.7,25.8,178.6L25.8,178.6z M37.4,170.9l-2.9-1.4l-2.3,1.6l0.6,3l3,1.3L38,174L37.4,170.9L37.4,170.9z"/>
	<path class="st0" d="M213.2,199l8-8.2l0.1-0.1l2.1,8.2c-1-1.4-3.9-0.2-9.1,6.9C214.3,205.8,214.8,204.7,213.2,199L213.2,199z"/>
	<path class="st1" d="M212.9,198.6c2.7-2.7,5.4-5.6,8.1-8.3c0.2-0.2,0.5-0.2,0.7,0c0.1,0.1,0.1,0.1,0.1,0.2l2.1,8.2
		c0.1,0.3-0.1,0.5-0.4,0.6c-0.2,0.1-0.4,0-0.5-0.2c-0.1-0.1-0.1-0.1-0.2-0.2c-0.2-0.1-0.4-0.2-0.8-0.1c-0.4,0.1-0.9,0.3-1.6,0.8
		c-1.4,1-3.3,3-5.8,6.4c-0.2,0.2-0.5,0.3-0.7,0.1c-0.2-0.1-0.2-0.4-0.2-0.6c0,0,0.4-0.9-1.1-6.5
		C212.7,198.9,212.8,198.7,212.9,198.6L212.9,198.6z M221.1,191.7l-7.3,7.5c0.7,2.5,1,4.2,1.1,5.2c2.1-2.7,3.8-4.5,5.1-5.4
		c0.7-0.5,1.4-0.8,1.9-1c0.3-0.1,0.6-0.1,0.8,0L221.1,191.7L221.1,191.7z"/>
	<path class="st0" d="M202.3,196.3c1.9,2.9,4.6,10.4,5.3,13.3c-0.2-2.9,2.1-6.7,5.4-10.5l0.2-0.2l8-8.2c5.5-5.4,9.4-10.1,9.4-10.1
		c1.8-2.4,1.4-5.3-0.1-8.4l-0.4-0.5c-8.1-8.1-13.5,0.7-15.1,4.6C211.9,184.1,207.6,190.7,202.3,196.3L202.3,196.3z M230.6,172.3
		L230.6,172.3L230.6,172.3z"/>
	<path class="st1" d="M202.9,196.4c0.8,1.3,1.8,3.4,2.6,5.6c0.7,1.8,1.4,3.7,1.9,5.3c0.3-0.9,0.6-1.8,1.1-2.7c1-1.8,2.4-3.8,4.1-5.7
		c2.3-2.7,5.6-5.8,8.2-8.4c5.3-5.2,9.2-9.8,9.4-10.1c0.8-1.1,1.2-2.3,1.1-3.6c-0.1-3.7-2-5.9-5.3-7.3c-1.4-0.6-2.8-0.6-3.9-0.2
		c-1.2,0.4-2.2,1.1-3.2,2c-1.7,1.7-2.8,3.9-3.4,5.4c-1.6,3.8-3.4,7.3-5.5,10.6C207.9,190.5,205.5,193.6,202.9,196.4L202.9,196.4z
		 M204.6,202.3c-0.9-2.3-1.9-4.5-2.7-5.7c-0.1-0.2-0.1-0.4,0-0.6c2.7-2.9,5.1-6,7.3-9.3c2.1-3.2,3.9-6.7,5.4-10.5
		c0.6-1.6,1.9-3.9,3.7-5.7c1-1,2.2-1.9,3.6-2.3c1.4-0.4,2.9-0.4,4.6,0.3c1.3,0.5,2.6,1.4,4.1,2.9l0.1,0.1l0.3,0.3
		c0.7,0.8,1.6,3.9,1.5,4.9c0.1,1.5-0.3,2.9-1.3,4.2l0,0c0,0-3.9,4.8-9.5,10.1l-8,8.2l-0.2,0.2c-1.6,1.9-3,3.8-4,5.5
		c-0.9,1.7-1.4,3.3-1.3,4.6c0,0.2-0.1,0.5-0.4,0.5c-0.3,0.1-0.5-0.1-0.6-0.4C206.8,208.2,205.8,205.2,204.6,202.3L204.6,202.3z"/>
	<path class="st2" d="M213,199.2c-4.7,5.5-7.5,10-3.8,13.7c2.4,2.2,6.9,1.5,9.3-0.6c7.1-6.2,8.5-23.5-4-6.7
		c-0.2,0.3-0.2,0.2-0.1-0.1c0.2-0.6,0-2.3-1.2-6.5L213,199.2L213,199.2z"/>
	<path class="st1" d="M213,200c-2.1,2.5-3.8,4.8-4.5,6.9c-0.8,2.1-0.6,4,1.1,5.6l0,0c1,0.9,2.5,1.3,3.9,1.2
		c5.6-0.4,9.4-7.1,9.8-12.2c0.1-1,0-1.8-0.3-2.3c-0.2-0.4-0.6-0.5-1.2-0.3c-1.4,0.4-3.7,2.4-7,6.9c-0.8,1-1.2,0.3-1-0.5
		c0.1-0.2,0.1-0.7-0.1-1.6C213.7,202.8,213.4,201.6,213,200L213,200z M207.5,206.5c0.9-2.3,2.8-4.9,5.2-7.7l0.2-0.2
		c0.1-0.1,0.2-0.1,0.3-0.2c0.3-0.1,0.5,0.1,0.6,0.3c0.6,2.1,0.9,3.6,1.1,4.7c0,0.3,0.1,0.5,0.1,0.7c3-3.9,5.2-5.8,6.7-6.2
		c1.1-0.3,1.8,0,2.3,0.8c0.4,0.7,0.5,1.7,0.4,2.8c-0.5,5.6-4.6,12.6-10.8,13.1c-1.7,0.1-3.5-0.3-4.7-1.4l0,0
		C206.9,211.2,206.6,209,207.5,206.5L207.5,206.5z"/>
	<path class="st6" d="M195,171.2L195,171.2C195.1,171.2,195.1,171.2,195,171.2c2.4-3.6,7.2-4.6,10.8-2.3c3.6,2.4,4.7,7.2,2.3,10.8
		l0,0.1c-2.3,3.6-7.2,4.6-10.8,2.3C193.7,179.7,192.7,174.9,195,171.2C195,171.2,195,171.2,195,171.2L195,171.2z"/>
	<path class="st7" d="M201.5,174.4l-3,1.4l-0.1,3.1l2.8,1.9l2.7-1.4l0.2-3.3L201.5,174.4L201.5,174.4z M193.9,175.6l0.7,0.2l1.4-1.7
		l0.6-3.2l-0.7-0.5C194.6,171.8,193.9,173.6,193.9,175.6L193.9,175.6z M193.9,175.8c0.1,1.9,0.9,3.7,2.2,5.1l-0.3-1.5l-1.3-3.3
		L193.9,175.8L193.9,175.8z M196.5,181.2c0.3,0.3,0.6,0.5,0.9,0.7c0.5,0.3,1.1,0.6,1.7,0.8l2.2-0.2l-0.2-1.7l-2.8-1.8l-2.2,0.3
		L196.5,181.2L196.5,181.2z M199.7,183c1.6,0.4,3.3,0.3,4.8-0.3l-0.2-0.2C202.8,182.6,201.2,182.8,199.7,183L199.7,183z
		 M204.7,182.5c1.3-0.6,2.5-1.5,3.3-2.8c0.2-0.3,0.4-0.6,0.5-0.9c0,0-2.2,1.6-2.4,1.8l-1.6,1.8L204.7,182.5L204.7,182.5z
		 M209.2,174.4c-0.3-1.7-1.1-3.3-2.3-4.5l-0.8-0.2l-0.7,1.4l1.4,2.9l1.9,1.3L209.2,174.4L209.2,174.4z M204.8,168.5
		c-1.2-0.6-2.6-0.8-3.9-0.7l-1,1.5l2.3,1.6l3,0l0.7-1.4L204.8,168.5L204.8,168.5z M195,171.1c2.4-3.7,7.3-4.7,11-2.3
		c3.7,2.4,4.7,7.3,2.3,11c-2.4,3.7-7.3,4.7-11,2.3C193.5,179.7,192.6,174.9,195,171.1L195,171.1z M208.4,178.6l-2.3,1.7l-1.9-1.1
		l0.2-3.2l2.3-1.8l1.9,1.3C208.6,176.4,208.6,177.7,208.4,178.6L208.4,178.6z M196.8,170.9l2.9-1.4l2.3,1.6l-0.6,3l-3,1.3l-2.2-1.5
		L196.8,170.9L196.8,170.9z"/>
	<path class="st8" d="M54.6,193.5l0.2-0.3c0.2-0.3,0.2-0.5,0.2-0.7c0-0.2-0.2-0.4-0.3-0.5c-0.2-0.2-0.5-0.4-0.9-0.6l0.6-1l5.9,3.6
		l-0.6,1l-0.1-0.1c-0.5-0.3-0.9-0.4-1.2-0.5c-0.4,0-0.7,0.2-1,0.7c0,0,0,0,0,0.1c0,0,0,0.1,0,0.1c0.4,0.1,0.7,0.1,1,0.2
		c0.3,0.1,0.5,0.1,0.6,0.2c0.1,0,0.2,0.1,0.4,0.2c0.2,0.1,0.3,0.2,0.4,0.3c0.8,0.5,1.4,1,1.8,1.6c0.7,1.2,0.7,2.4-0.1,3.7
		c-0.4,0.6-0.9,1.1-1.3,1.4c-0.5,0.3-1,0.5-1.5,0.6c-0.5,0.1-1,0-1.5-0.1c-0.5-0.1-1-0.4-1.5-0.7c-1-0.6-1.5-1.1-1.7-1.5
		c-0.2,0.3-0.4,0.6-0.4,0.8c-0.1,0.2-0.1,0.4-0.1,0.5c0,0.2,0.2,0.3,0.3,0.4c0.2,0.1,0.4,0.3,0.8,0.6l-0.7,1.1l-5.9-3.6l0.7-1.1
		c0.5,0.3,0.8,0.4,1,0.5c0.2,0.1,0.4,0,0.6-0.1c0.2-0.1,0.4-0.4,0.7-0.9c-0.3,0-0.6-0.1-1.1-0.3c-0.5-0.2-0.8-0.4-1-0.6
		c-1.1-0.7-1.8-1.5-2.1-2.4c-0.4-1-0.2-2.1,0.5-3.3c0.8-1.3,1.9-1.9,3.3-1.8c0.6,0.1,1.4,0.3,2.2,0.8c0.1,0.1,0.2,0.2,0.4,0.3
		c0.2,0.1,0.3,0.2,0.4,0.3c0.1,0.1,0.2,0.2,0.4,0.5C54.2,192.9,54.4,193.2,54.6,193.5L54.6,193.5z M51.6,198.2l2.3-3.7
		c-0.1-0.3-0.2-0.6-0.5-0.8c-0.2-0.2-0.5-0.4-0.6-0.5l-0.1-0.1c-0.4-0.3-0.9-0.3-1.4,0c-0.5,0.3-0.9,0.7-1.2,1.3
		c-0.5,0.7-0.7,1.4-0.8,1.9c-0.1,0.6,0.2,1.1,0.8,1.5c0.2,0.1,0.5,0.2,0.8,0.4C51.3,198.3,51.6,198.3,51.6,198.2L51.6,198.2z
		 M54.5,200c-0.1,0.1,0,0.3,0.3,0.6c0.3,0.2,0.5,0.4,0.7,0.6c0.5,0.3,1,0.4,1.4,0.3c0.4-0.1,0.7-0.3,0.9-0.5
		c0.2-0.2,0.5-0.7,0.9-1.3c0,0,0,0,0-0.1c0,0,0,0,0-0.1c0.3-0.5,0.5-1,0.5-1.6c0-0.5-0.2-0.9-0.6-1.2l-0.1-0.1
		c-0.2-0.1-0.4-0.2-0.7-0.3c-0.3-0.1-0.6-0.1-0.9,0L54.5,200L54.5,200z"/>
	<path class="st1" d="M54.6,193.2l0.1-0.2c0.1-0.1,0.1-0.3,0.2-0.4c0-0.1,0-0.2,0-0.3c0-0.1,0-0.2-0.1-0.2c0-0.1-0.1-0.2-0.2-0.2
		c-0.1-0.1-0.2-0.2-0.3-0.3c-0.1-0.1-0.3-0.2-0.5-0.3l-0.1-0.1l0.8-1.2l6.1,3.8l-0.8,1.2l-0.2-0.2c-0.2-0.1-0.4-0.2-0.6-0.3
		c-0.2-0.1-0.4-0.1-0.5-0.1c-0.1,0-0.3,0-0.4,0.1c-0.1,0.1-0.3,0.3-0.4,0.5l0,0l0.4,0.1c0.2,0,0.3,0.1,0.5,0.1l0.4,0.1
		c0.4,0.1,0.6,0.3,0.9,0.5l0.2,0.1c0.4,0.3,0.8,0.5,1.1,0.8c0.3,0.3,0.5,0.5,0.7,0.8c0.4,0.6,0.6,1.2,0.5,1.9c0,0.6-0.2,1.3-0.7,2
		l0,0c-0.2,0.3-0.4,0.6-0.7,0.9c-0.2,0.2-0.5,0.5-0.7,0.6c-0.2,0.2-0.5,0.3-0.8,0.4c-0.3,0.1-0.5,0.2-0.8,0.2c-0.3,0-0.5,0-0.8,0
		c-0.3,0-0.5-0.1-0.8-0.1c-0.3-0.1-0.5-0.2-0.8-0.3c-0.3-0.1-0.5-0.3-0.8-0.4c-0.5-0.3-0.9-0.6-1.2-0.8c-0.2-0.2-0.4-0.3-0.5-0.5
		l-0.1,0.3c-0.1,0.1-0.1,0.2-0.2,0.3c0,0.1-0.1,0.2-0.1,0.2c0,0.1,0,0.1,0,0.2c0,0.1,0.1,0.1,0.1,0.2c0,0.1,0.1,0.1,0.2,0.2
		c0.1,0.1,0.2,0.1,0.3,0.2c0.1,0.1,0.3,0.2,0.5,0.3l0.1,0.1l-0.8,1.3c-2.1-1.3-4.1-2.5-6.1-3.8l0.8-1.3l0.1,0.1
		c0.2,0.1,0.4,0.2,0.6,0.3c0.2,0.1,0.3,0.1,0.4,0.2c0.1,0,0.2,0,0.3,0c0.1,0,0.2-0.1,0.3-0.1c0.1-0.1,0.2-0.2,0.3-0.3
		c0.1-0.1,0.2-0.2,0.3-0.3c-0.1,0-0.2,0-0.2-0.1c-0.2-0.1-0.4-0.1-0.6-0.2c-0.2-0.1-0.4-0.2-0.6-0.3c-0.2-0.1-0.3-0.2-0.5-0.3
		c-0.5-0.3-1-0.7-1.4-1.1c-0.4-0.4-0.6-0.9-0.8-1.4c-0.2-0.5-0.2-1-0.1-1.6c0.1-0.6,0.3-1.2,0.7-1.8l0,0c0.4-0.7,0.9-1.2,1.5-1.5
		c0.6-0.3,1.2-0.4,1.9-0.4l0,0c0.3,0,0.7,0.1,1,0.3c0.4,0.1,0.8,0.3,1.2,0.6l0.2,0.1c0.4,0.2,0.6,0.4,0.9,0.7l0.3,0.3
		c0.1,0.1,0.2,0.2,0.3,0.4L54.6,193.2L54.6,193.2z M55,193.2l-0.3,0.5l-0.1-0.2c-0.1-0.1-0.2-0.3-0.3-0.4c-0.1-0.1-0.2-0.2-0.3-0.3
		l-0.2-0.3l-0.2-0.2c-0.2-0.1-0.4-0.3-0.6-0.4l-0.2-0.1c-0.4-0.2-0.8-0.4-1.1-0.6c-0.3-0.1-0.7-0.2-1-0.3c-0.7-0.1-1.2,0.1-1.8,0.3
		c-0.5,0.3-1,0.8-1.4,1.4c-0.3,0.6-0.6,1.2-0.7,1.7c-0.1,0.5,0,1,0.1,1.5c0.2,0.5,0.4,0.9,0.8,1.3c0.3,0.4,0.8,0.8,1.3,1.1
		c0.1,0.1,0.3,0.2,0.4,0.2c0.2,0.1,0.4,0.2,0.6,0.3c0.2,0.1,0.4,0.2,0.6,0.2c0.2,0,0.3,0.1,0.4,0.1l0.3,0l-0.2,0.2
		c-0.1,0.2-0.3,0.4-0.4,0.6c-0.1,0.2-0.2,0.3-0.4,0.4c-0.1,0.1-0.2,0.1-0.4,0.2c-0.1,0-0.3,0-0.4,0c-0.1,0-0.3-0.1-0.5-0.2
		c-0.1-0.1-0.3-0.2-0.5-0.3l-0.5,0.8l5.7,3.5l0.5-0.8c-0.1-0.1-0.3-0.2-0.4-0.2c-0.1-0.1-0.3-0.2-0.3-0.3c-0.1-0.1-0.2-0.2-0.2-0.2
		c-0.1-0.1-0.1-0.2-0.1-0.3c0-0.1,0-0.2,0-0.3c0-0.1,0-0.2,0.1-0.3c0-0.1,0.1-0.2,0.2-0.4c0.1-0.1,0.2-0.3,0.3-0.5l0.1-0.2L54,201
		c0.1,0.2,0.2,0.4,0.5,0.6c0.3,0.2,0.7,0.5,1.1,0.8c0.3,0.2,0.5,0.3,0.7,0.4c0.2,0.1,0.5,0.2,0.7,0.3c0.2,0.1,0.5,0.1,0.7,0.1
		c0.2,0,0.5,0,0.7,0c0.2,0,0.5-0.1,0.7-0.2c0.2-0.1,0.5-0.2,0.7-0.4c0.2-0.2,0.4-0.3,0.7-0.6c0.2-0.2,0.4-0.5,0.6-0.8
		c0.4-0.6,0.6-1.3,0.6-1.9c0-0.6-0.1-1.2-0.5-1.7c-0.2-0.3-0.4-0.5-0.7-0.8c-0.3-0.3-0.6-0.5-1-0.8l-0.2-0.1l-0.7-0.4l-0.2-0.1
		l-0.4-0.1c-0.1,0-0.3-0.1-0.4-0.1c-0.2,0-0.3-0.1-0.5-0.1l-0.2,0c0.1-0.2,0.1-0.2,0.2-0.4c0.2-0.3,0.3-0.4,0.5-0.6
		c0.2-0.1,0.4-0.2,0.6-0.2c0.2,0,0.4,0.1,0.6,0.1c0.2,0.1,0.4,0.2,0.7,0.3l0,0l0.5-0.7l-5.7-3.5l-0.5,0.7c0.1,0.1,0.3,0.2,0.4,0.3
		c0.1,0.1,0.3,0.2,0.4,0.3c0.1,0.1,0.2,0.2,0.3,0.3c0.1,0.1,0.1,0.2,0.1,0.3c0,0.1,0,0.3,0,0.4C55.1,192.9,55.1,193.1,55,193.2
		L55,193.2z M51.5,198.1l2.3-3.7c0-0.1-0.1-0.2-0.1-0.3c-0.1-0.1-0.2-0.2-0.3-0.3c-0.1-0.1-0.2-0.2-0.3-0.3
		c-0.1-0.1-0.2-0.2-0.3-0.2l-0.1-0.1c-0.2-0.1-0.4-0.2-0.6-0.2c-0.2,0-0.4,0.1-0.6,0.2c-0.2,0.1-0.4,0.3-0.6,0.5
		c-0.2,0.2-0.4,0.4-0.5,0.7c-0.2,0.4-0.4,0.7-0.5,1c-0.1,0.3-0.2,0.6-0.2,0.9c0,0.3,0,0.5,0.1,0.7c0.1,0.2,0.3,0.5,0.6,0.7
		c0.1,0.1,0.2,0.1,0.3,0.2c0.1,0.1,0.3,0.1,0.4,0.2c0.2,0.1,0.3,0.1,0.4,0.1C51.5,198.1,51.5,198.1,51.5,198.1L51.5,198.1z
		 M54.1,194.5c-0.7,1.1-1.6,2.8-2.3,3.7c-0.1,0.1-0.2,0.1-0.3,0.1c-0.1,0-0.3,0-0.5-0.1c-0.2-0.1-0.3-0.1-0.5-0.2
		c-0.1-0.1-0.3-0.1-0.4-0.2l0,0c-0.3-0.2-0.6-0.5-0.7-0.8c-0.2-0.3-0.2-0.6-0.2-0.9c0-0.3,0.1-0.6,0.3-0.9c0.1-0.3,0.3-0.7,0.5-1.1
		c0.2-0.3,0.4-0.5,0.6-0.7c0.2-0.2,0.4-0.4,0.7-0.6c0.3-0.2,0.5-0.3,0.8-0.3c0.3,0,0.5,0.1,0.8,0.2l0.1,0.1c0.1,0.1,0.2,0.1,0.3,0.2
		c0.1,0.1,0.2,0.2,0.3,0.3c0.1,0.1,0.2,0.3,0.3,0.4c0.1,0.1,0.1,0.3,0.2,0.5L54.1,194.5L54.1,194.5L54.1,194.5z M54.6,200.1
		c0,0,0,0.1,0,0.1c0,0.1,0.1,0.2,0.2,0.3c0.1,0.1,0.3,0.2,0.4,0.3c0.1,0.1,0.2,0.2,0.3,0.2c0.3,0.1,0.5,0.2,0.7,0.3
		c0.2,0,0.4,0,0.6,0c0.2,0,0.3-0.1,0.5-0.2c0.1-0.1,0.2-0.2,0.3-0.3c0.1-0.1,0.2-0.3,0.4-0.5c0.1-0.2,0.3-0.5,0.5-0.7l0-0.1
		c0,0,0,0,0-0.1c0.2-0.2,0.3-0.5,0.4-0.8c0.1-0.3,0.1-0.5,0.2-0.8c0-0.2,0-0.5-0.1-0.6c-0.1-0.2-0.2-0.3-0.4-0.4l-0.1-0.1
		c-0.1-0.1-0.2-0.1-0.3-0.2c-0.1-0.1-0.3-0.1-0.4-0.1c-0.1,0-0.3-0.1-0.4-0.1c-0.1,0-0.2,0-0.4,0L54.6,200.1L54.6,200.1z
		 M54.4,200.3c-0.1-0.1-0.1-0.3,0-0.4c0.5-1.1,1.7-2.7,2.3-3.8l0.1,0c0.2,0,0.3-0.1,0.5,0c0.2,0,0.3,0,0.5,0.1
		c0.2,0,0.3,0.1,0.4,0.2c0.1,0.1,0.2,0.1,0.3,0.2l0.1,0.1c0.2,0.1,0.4,0.3,0.5,0.6c0.1,0.2,0.1,0.5,0.1,0.8c0,0.3-0.1,0.6-0.2,0.8
		c-0.1,0.3-0.2,0.5-0.4,0.8l0,0.1c0,0,0,0,0,0.1c-0.2,0.3-0.4,0.6-0.5,0.8c-0.2,0.2-0.3,0.4-0.4,0.5c-0.1,0.1-0.2,0.3-0.4,0.3
		c-0.2,0.1-0.3,0.2-0.5,0.2c-0.2,0.1-0.4,0.1-0.7,0c-0.2,0-0.5-0.1-0.8-0.3l0,0c-0.1-0.1-0.2-0.1-0.3-0.2c-0.1-0.1-0.2-0.2-0.4-0.3
		C54.6,200.5,54.5,200.4,54.4,200.3L54.4,200.3z"/>
	<path class="st8" d="M73.1,202.1c-0.3,0.1-0.7,0.3-1.1,0.5c-0.4,0.2-0.8,0.4-1.1,0.6c-0.3,0.2-0.6,0.3-0.9,0.4
		c-0.3,0.1-0.5,0.2-0.7,0.1c0.4,0.3,0.8,0.6,1.1,1.1c0.3,0.4,0.6,0.9,0.7,1.4c0.2,0.5,0.3,0.8,0.3,1.1l0.3,2.4c0.2,1,0.5,1.6,1,1.8
		c0.2,0.1,0.4,0.1,0.8,0l-0.1,1c-0.4,0.2-0.9,0.2-1.5,0.1c-0.6-0.1-1.1-0.2-1.5-0.4l-0.4-0.2c-0.4-0.2-0.7-0.5-1-0.9
		c-0.3-0.3-0.5-0.6-0.5-0.9c-0.1-0.4-0.2-0.9-0.2-1.3c0-0.4,0-0.9,0-1.5c0-0.6,0.1-1,0.1-1.2c0-0.7-0.1-1.3-0.2-1.7
		c-0.1-0.4-0.5-0.7-1-1l-0.6-0.3l-1.3,2.8c-0.2,0.5-0.3,0.8-0.4,1.1c0,0.3,0,0.5,0.2,0.7c0.2,0.2,0.5,0.4,0.9,0.6l-0.5,1.2l-6.1-2.7
		l0.5-1.2c0.4,0.2,0.8,0.3,1.1,0.3c0.3,0,0.5-0.1,0.7-0.3c0.2-0.2,0.4-0.5,0.6-1l2.6-5.7c0.2-0.5,0.3-0.8,0.4-1.1
		c0-0.3,0-0.5-0.2-0.7c-0.2-0.2-0.5-0.4-0.9-0.6l0.5-1.2l6.1,2.7l-0.5,1.2c-0.5-0.2-0.8-0.3-1.1-0.3c-0.3,0-0.5,0.1-0.6,0.3
		c-0.2,0.2-0.4,0.5-0.6,1l-0.8,1.8l1.1,0.5c0.3,0.1,0.6,0,1-0.1c0.4-0.1,0.8-0.3,1.2-0.6c0.4-0.2,0.9-0.5,1.4-0.9
		c0.5-0.3,0.9-0.6,1-0.6c0.3-0.2,0.8-0.3,1.3-0.4c0.5-0.1,1,0,1.5,0.2l0.1,0c0.5,0.2,0.8,0.5,1,0.9c0.2,0.4,0.3,0.8,0.2,1.1
		l-0.1,0.2c-0.1,0.2-0.3,0.4-0.5,0.6c-0.2,0.2-0.5,0.3-0.7,0.3c-0.2,0-0.4,0-0.5-0.1c-0.3-0.1-0.6-0.5-0.8-1
		c-0.1-0.2-0.2-0.4-0.5-0.5C73.3,202.1,73.2,202,73.1,202.1L73.1,202.1z"/>
	<path class="st1" d="M73.1,202.2c-0.2,0.1-0.3,0.1-0.5,0.2c-0.2,0.1-0.4,0.2-0.6,0.3l-1.1,0.6c-0.2,0.1-0.3,0.2-0.5,0.2
		c-0.2,0.1-0.3,0.1-0.4,0.2c-0.1,0.1-0.3,0.1-0.4,0.1c0.1,0.1,0.2,0.2,0.3,0.3c0.2,0.2,0.4,0.4,0.5,0.6c0.2,0.2,0.3,0.5,0.4,0.7
		c0.1,0.2,0.2,0.5,0.3,0.7c0.1,0.2,0.2,0.4,0.2,0.6c0.1,0.2,0.1,0.4,0.1,0.5l0.3,2.4c0.1,0.5,0.2,0.9,0.4,1.2
		c0.2,0.3,0.3,0.5,0.5,0.5c0.1,0,0.1,0,0.3,0c0.1,0,0.3,0,0.4,0l0.2,0l-0.2,1.3l-0.1,0c-0.2,0.1-0.5,0.1-0.7,0.2c-0.3,0-0.5,0-0.8,0
		c-0.3,0-0.6-0.1-0.8-0.1c-0.3-0.1-0.5-0.2-0.8-0.3c-0.1-0.1-0.3-0.1-0.4-0.2c-0.2-0.1-0.4-0.3-0.6-0.4c-0.2-0.1-0.3-0.3-0.5-0.5
		c-0.2-0.2-0.3-0.3-0.4-0.5c-0.1-0.2-0.2-0.3-0.2-0.4c-0.1-0.2-0.1-0.4-0.2-0.7c0-0.2-0.1-0.4-0.1-0.7c0-0.2,0-0.5,0-0.7
		c0-0.3,0-0.5,0-0.8c0-0.3,0-0.5,0.1-0.7c0-0.2,0-0.4,0-0.5c0-0.4,0-0.7-0.1-1c0-0.3-0.1-0.5-0.1-0.7c-0.1-0.2-0.2-0.3-0.3-0.5
		c-0.2-0.2-0.4-0.3-0.6-0.4l-0.5-0.2l-1.2,2.7c-0.1,0.2-0.2,0.4-0.2,0.6c-0.1,0.2-0.1,0.3-0.1,0.4c0,0.1,0,0.2,0,0.3
		c0,0.1,0.1,0.2,0.1,0.3c0.1,0.1,0.2,0.2,0.3,0.3c0.2,0.1,0.3,0.2,0.6,0.3l0.1,0.1l-0.6,1.4c-2.1-0.9-4.2-1.9-6.3-2.9l0.6-1.4
		l0.1,0.1c0.2,0.1,0.4,0.2,0.6,0.2c0.2,0,0.3,0.1,0.4,0.1c0.1,0,0.2,0,0.3-0.1c0.1,0,0.2-0.1,0.2-0.2c0.1-0.1,0.2-0.2,0.3-0.4
		c0.1-0.2,0.2-0.3,0.3-0.6l2.6-5.7c0.1-0.2,0.2-0.4,0.2-0.6c0.1-0.2,0.1-0.3,0.1-0.4c0-0.1,0-0.2,0-0.3c0-0.1-0.1-0.2-0.2-0.3
		c-0.1-0.1-0.2-0.2-0.3-0.3c-0.1-0.1-0.3-0.2-0.5-0.3l-0.1-0.1l0.6-1.4c2.1,1,4.2,1.9,6.3,2.9l-0.6,1.4l-0.1-0.1
		c-0.2-0.1-0.4-0.2-0.6-0.2c-0.2,0-0.3-0.1-0.4-0.1c-0.1,0-0.2,0-0.3,0.1c-0.1,0-0.2,0.1-0.2,0.2c-0.1,0.1-0.2,0.2-0.3,0.4
		c-0.1,0.2-0.2,0.4-0.3,0.6l-0.7,1.6l0.9,0.4c0.1,0,0.3,0,0.4,0c0.2,0,0.3-0.1,0.5-0.1c0.2-0.1,0.4-0.2,0.6-0.2
		c0.2-0.1,0.4-0.2,0.6-0.3c0.2-0.1,0.4-0.2,0.7-0.4l1.4-0.9c0.2-0.1,0.3-0.2,0.4-0.2c0.2-0.1,0.4-0.2,0.6-0.2
		c0.2-0.1,0.5-0.1,0.7-0.2c0.3,0,0.5,0,0.8,0c0.3,0,0.5,0.1,0.8,0.2l0.1,0c0.2,0.1,0.5,0.2,0.6,0.4c0.2,0.2,0.3,0.4,0.4,0.6
		c0.1,0.2,0.2,0.4,0.2,0.6c0,0.2,0,0.4,0,0.6c0,0.1-0.1,0.2-0.1,0.2c-0.1,0.1-0.1,0.3-0.2,0.4c-0.1,0.1-0.2,0.2-0.3,0.3
		c-0.1,0.1-0.2,0.2-0.4,0.2c-0.1,0-0.3,0.1-0.4,0.1c-0.1,0-0.2,0-0.3,0c-0.1,0-0.2,0-0.3-0.1c-0.2-0.1-0.3-0.2-0.5-0.4
		c-0.1-0.2-0.3-0.4-0.4-0.6c0-0.1-0.1-0.2-0.1-0.2c-0.1-0.1-0.2-0.1-0.3-0.2c-0.1,0-0.2-0.1-0.2-0.1
		C73.2,202.2,73.1,202.2,73.1,202.2L73.1,202.2z M72.5,202.2c0.2-0.1,0.4-0.2,0.5-0.2l0,0c0.1,0,0.2,0,0.3,0c0.1,0,0.2,0,0.3,0.1
		c0.1,0.1,0.3,0.1,0.3,0.2c0.1,0.1,0.2,0.2,0.2,0.3c0.1,0.2,0.2,0.4,0.3,0.6c0.1,0.1,0.2,0.2,0.4,0.3c0,0,0.1,0,0.2,0
		c0.1,0,0.2,0,0.3,0c0.1,0,0.2,0,0.4-0.1c0.1,0,0.2-0.1,0.3-0.2c0.1-0.1,0.2-0.2,0.3-0.3c0.1-0.1,0.1-0.2,0.2-0.3l0.1-0.2
		c0-0.1,0.1-0.3,0-0.5c0-0.2-0.1-0.3-0.2-0.5c-0.1-0.2-0.2-0.3-0.4-0.5c-0.2-0.1-0.3-0.3-0.6-0.4l-0.1,0c-0.2-0.1-0.5-0.2-0.7-0.2
		c-0.2,0-0.5,0-0.7,0c-0.3,0-0.5,0.1-0.7,0.1c-0.2,0.1-0.4,0.1-0.6,0.2c-0.1,0-0.2,0.1-0.4,0.2l-1.4,0.9c-0.2,0.1-0.5,0.3-0.7,0.4
		c-0.2,0.1-0.4,0.2-0.6,0.3c-0.2,0.1-0.4,0.2-0.6,0.3c-0.2,0.1-0.4,0.1-0.6,0.1c-0.2,0-0.4,0-0.5,0c-0.3-0.1-0.9-0.4-1.2-0.5
		l0.9-1.9c0.1-0.2,0.2-0.5,0.3-0.6c0.1-0.2,0.2-0.3,0.3-0.4c0.1-0.1,0.2-0.2,0.3-0.3c0.1-0.1,0.3-0.1,0.4-0.1c0.1,0,0.3,0,0.5,0.1
		c0.1,0,0.3,0.1,0.5,0.2l0.4-0.9l-5.8-2.6l-0.4,0.9c0.2,0.1,0.3,0.2,0.5,0.3c0.2,0.1,0.3,0.2,0.4,0.3c0.1,0.1,0.2,0.2,0.2,0.4
		c0,0.1,0.1,0.3,0,0.4c0,0.1-0.1,0.3-0.1,0.5c-0.1,0.2-0.1,0.4-0.3,0.6l-2.6,5.7c-0.1,0.2-0.2,0.4-0.3,0.6c-0.1,0.2-0.2,0.3-0.3,0.4
		c-0.1,0.1-0.2,0.2-0.3,0.3c-0.1,0.1-0.3,0.1-0.4,0.1c-0.1,0-0.3,0-0.5-0.1c-0.2,0-0.3-0.1-0.5-0.2l-0.4,0.9l5.8,2.6l0.4-0.9
		c-0.2-0.1-0.3-0.2-0.5-0.3c-0.2-0.1-0.3-0.2-0.4-0.3c-0.1-0.1-0.2-0.2-0.2-0.4c0-0.1,0-0.3,0-0.4c0-0.1,0.1-0.3,0.1-0.5
		c0.1-0.2,0.2-0.4,0.3-0.6l1.3-2.9c0.3,0.1,0.5,0.2,0.8,0.4c0.3,0.1,0.5,0.3,0.7,0.5c0.2,0.2,0.3,0.4,0.4,0.6
		c0.1,0.2,0.1,0.5,0.2,0.7c0,0.3,0.1,0.6,0.1,1v0c0,0.1,0,0.3,0,0.5c0,0.2,0,0.4-0.1,0.7c0,0.3,0,0.5,0,0.8c0,0.2,0,0.5,0,0.7
		c0,0.2,0,0.4,0.1,0.6c0,0.2,0.1,0.4,0.2,0.6l0,0c0,0.1,0.1,0.2,0.2,0.3c0.1,0.1,0.2,0.3,0.3,0.5c0.1,0.2,0.3,0.3,0.5,0.5
		c0.2,0.1,0.3,0.3,0.5,0.4l0.4,0.2c0.2,0.1,0.5,0.2,0.7,0.3c0.3,0.1,0.5,0.1,0.8,0.1c0.3,0,0.5,0,0.8,0c0.2,0,0.4-0.1,0.6-0.1
		l0.1-0.7c-0.1,0-0.2,0-0.3,0c-0.1,0-0.3,0-0.4-0.1c-0.2-0.1-0.5-0.3-0.6-0.7c-0.2-0.3-0.3-0.7-0.4-1.2c-0.1-0.5-0.3-2-0.3-2.4
		c0-0.1,0-0.3-0.1-0.5c-0.1-0.2-0.1-0.4-0.2-0.6c-0.1-0.2-0.2-0.4-0.3-0.7c-0.1-0.2-0.3-0.4-0.4-0.7c-0.2-0.2-0.3-0.4-0.5-0.6
		c-0.2-0.2-0.4-0.3-0.6-0.5l-0.4-0.3l0.5,0c0.1,0,0.2,0,0.3,0c0.1,0,0.2-0.1,0.3-0.1c0.1-0.1,0.3-0.1,0.4-0.2
		c0.1-0.1,0.3-0.1,0.5-0.2l1.1-0.6C72.1,202.4,72.3,202.3,72.5,202.2L72.5,202.2z"/>
	<path class="st8" d="M93.9,207.8c-0.3,0.2-0.6,0.4-1,0.7c-0.4,0.3-0.7,0.6-1,0.8c-0.3,0.3-0.6,0.5-0.8,0.6
		c-0.2,0.2-0.5,0.3-0.7,0.3c0.5,0.2,0.9,0.5,1.3,0.8c0.4,0.4,0.7,0.8,1,1.2c0.3,0.4,0.5,0.8,0.5,1.1l0.8,2.3
		c0.4,0.9,0.9,1.4,1.3,1.5c0.2,0,0.4,0,0.8-0.1l0.1,1c-0.4,0.2-0.9,0.4-1.4,0.5c-0.6,0.1-1.1,0-1.6-0.1l-0.4-0.1
		c-0.4-0.2-0.8-0.4-1.2-0.6c-0.4-0.3-0.6-0.5-0.7-0.7c-0.2-0.4-0.4-0.8-0.5-1.2c-0.1-0.4-0.2-0.9-0.3-1.5c-0.1-0.6-0.1-1-0.2-1.2
		c-0.2-0.7-0.4-1.3-0.6-1.6c-0.2-0.4-0.6-0.6-1.2-0.8l-0.7-0.2l-0.6,3c-0.1,0.5-0.2,0.9-0.1,1.1c0,0.3,0.1,0.5,0.3,0.6
		c0.2,0.2,0.5,0.3,1,0.4l-0.3,1.2l-6.5-1.4l0.3-1.2c0.5,0.1,0.8,0.1,1.1,0.1c0.3-0.1,0.5-0.2,0.6-0.4c0.1-0.2,0.2-0.6,0.3-1.1
		l1.3-6.1c0.1-0.5,0.1-0.9,0.1-1.1c0-0.3-0.1-0.5-0.3-0.6c-0.2-0.2-0.6-0.3-1-0.4l0.3-1.2l6.5,1.4l-0.3,1.2
		c-0.5-0.1-0.9-0.1-1.1-0.1c-0.2,0.1-0.4,0.2-0.5,0.4c-0.1,0.2-0.2,0.6-0.3,1.1l-0.4,1.9l1.1,0.2c0.3,0,0.6-0.1,1-0.3
		c0.4-0.2,0.7-0.5,1.1-0.8c0.3-0.3,0.7-0.7,1.2-1.1c0.5-0.5,0.8-0.7,0.9-0.8c0.3-0.2,0.7-0.4,1.2-0.6c0.5-0.2,1-0.2,1.5-0.1l0.1,0
		c0.5,0.1,0.9,0.3,1.2,0.7c0.3,0.3,0.4,0.7,0.4,1l0,0.2c-0.1,0.3-0.2,0.5-0.3,0.7c-0.2,0.2-0.4,0.3-0.7,0.4c-0.2,0.1-0.4,0.1-0.5,0
		c-0.3-0.1-0.7-0.3-0.9-0.8c-0.1-0.2-0.3-0.3-0.6-0.4C94.2,207.7,94,207.7,93.9,207.8L93.9,207.8z"/>
	<path class="st1" d="M94,207.9c-0.1,0.1-0.3,0.2-0.4,0.3c-0.2,0.1-0.3,0.3-0.5,0.4l-1,0.8c-0.1,0.1-0.3,0.2-0.4,0.3
		c-0.1,0.1-0.3,0.2-0.4,0.3c-0.1,0.1-0.2,0.1-0.4,0.2c0.1,0.1,0.2,0.1,0.4,0.2c0.2,0.1,0.4,0.3,0.6,0.5c0.2,0.2,0.4,0.4,0.6,0.6
		c0.2,0.2,0.3,0.4,0.5,0.6c0.1,0.2,0.3,0.4,0.3,0.6c0.1,0.2,0.2,0.4,0.2,0.5l0.8,2.3c0.2,0.5,0.4,0.8,0.6,1c0.2,0.2,0.4,0.4,0.6,0.4
		c0.1,0,0.2,0,0.3,0c0.1,0,0.3-0.1,0.4-0.1l0.2-0.1l0.1,1.3l-0.1,0c-0.2,0.1-0.4,0.2-0.7,0.3c-0.2,0.1-0.5,0.1-0.8,0.2
		c-0.3,0-0.6,0-0.8,0c-0.3,0-0.5,0-0.8-0.1c-0.1,0-0.3-0.1-0.4-0.1c-0.2-0.1-0.4-0.2-0.6-0.3c-0.2-0.1-0.4-0.2-0.6-0.4
		c-0.4-0.3-0.6-0.5-0.7-0.8c-0.1-0.2-0.2-0.4-0.3-0.6c-0.1-0.2-0.2-0.4-0.2-0.6c-0.1-0.2-0.1-0.4-0.1-0.7c0-0.3-0.1-0.5-0.1-0.8
		c0-0.3-0.1-0.5-0.1-0.7c0-0.2-0.1-0.3-0.1-0.5c-0.1-0.3-0.2-0.7-0.3-0.9c-0.1-0.3-0.2-0.5-0.3-0.6c-0.1-0.2-0.2-0.3-0.4-0.4
		c-0.2-0.1-0.4-0.2-0.7-0.3l-0.6-0.1l-0.6,2.9c-0.1,0.3-0.1,0.5-0.1,0.7c0,0.2,0,0.3,0,0.5c0,0.1,0,0.2,0.1,0.3
		c0,0.1,0.1,0.2,0.2,0.2c0.1,0.1,0.2,0.1,0.4,0.2c0.2,0.1,0.4,0.1,0.6,0.2l0.1,0l-0.3,1.5l-6.8-1.5l0.3-1.5l0.1,0
		c0.2,0.1,0.4,0.1,0.6,0.1c0.2,0,0.3,0,0.4,0c0.1,0,0.2-0.1,0.3-0.1c0.1-0.1,0.1-0.1,0.2-0.2c0.1-0.1,0.1-0.2,0.2-0.4
		c0.1-0.2,0.1-0.4,0.2-0.6l1.3-6.1c0.1-0.2,0.1-0.5,0.1-0.6c0-0.2,0-0.3,0-0.5c0-0.1,0-0.2-0.1-0.3c0-0.1-0.1-0.2-0.2-0.2
		c-0.1-0.1-0.2-0.1-0.4-0.2c-0.2-0.1-0.4-0.1-0.6-0.2l-0.1,0l0.3-1.5c2.3,0.5,4.5,1,6.8,1.5l-0.3,1.5l-0.1,0
		c-0.2-0.1-0.4-0.1-0.6-0.1c-0.2,0-0.3,0-0.4,0c-0.1,0-0.2,0.1-0.3,0.1c-0.1,0.1-0.1,0.1-0.2,0.2c-0.1,0.1-0.1,0.3-0.2,0.4
		c-0.1,0.2-0.1,0.4-0.2,0.7l-0.4,1.8l1,0.2c0.1,0,0.3,0,0.4-0.1c0.2,0,0.3-0.1,0.5-0.2c0.2-0.1,0.4-0.2,0.5-0.4
		c0.2-0.1,0.3-0.3,0.5-0.4c0.2-0.1,0.4-0.3,0.6-0.5l1.2-1.1c0.2-0.1,0.3-0.2,0.3-0.3c0.2-0.1,0.3-0.2,0.5-0.3
		c0.2-0.1,0.4-0.2,0.7-0.3c0.3-0.1,0.5-0.2,0.8-0.2c0.3,0,0.5,0,0.8,0l0.1,0c0.3,0.1,0.5,0.1,0.7,0.3c0.2,0.1,0.4,0.3,0.6,0.5
		c0.2,0.2,0.3,0.4,0.3,0.6c0.1,0.2,0.1,0.4,0.1,0.6c0,0.1,0,0.2,0,0.2c0,0.1-0.1,0.3-0.1,0.4c-0.1,0.1-0.1,0.2-0.2,0.4
		c-0.1,0.1-0.2,0.2-0.3,0.3c-0.1,0.1-0.3,0.1-0.4,0.2c-0.1,0-0.2,0-0.3,0.1c-0.1,0-0.2,0-0.3,0c-0.2,0-0.4-0.1-0.5-0.3
		c-0.2-0.1-0.3-0.3-0.5-0.6c-0.1-0.1-0.3-0.2-0.5-0.3c-0.1,0-0.2,0-0.2,0C94.1,207.9,94,207.9,94,207.9L94,207.9z M93.4,208
		c0.2-0.1,0.3-0.2,0.5-0.3c0.1,0,0.2-0.1,0.3-0.1c0.1,0,0.2,0,0.3,0c0.3,0.1,0.5,0.2,0.7,0.4c0.1,0.2,0.3,0.4,0.4,0.5
		c0.1,0.1,0.3,0.2,0.4,0.2c0,0,0.1,0,0.2,0c0.1,0,0.2,0,0.3-0.1c0.1,0,0.2-0.1,0.3-0.1c0.1-0.1,0.2-0.1,0.3-0.2
		c0.1-0.1,0.1-0.2,0.2-0.3c0.1-0.1,0.1-0.2,0.1-0.3l0-0.2c0-0.2,0-0.3-0.1-0.5c-0.1-0.2-0.2-0.3-0.3-0.5c-0.1-0.2-0.3-0.3-0.5-0.4
		c-0.2-0.1-0.4-0.2-0.6-0.2l-0.1,0c-0.2,0-0.5-0.1-0.7,0c-0.2,0-0.5,0.1-0.7,0.2c-0.2,0.1-0.5,0.2-0.7,0.3c-0.2,0.1-0.4,0.2-0.5,0.3
		c-0.1,0.1-0.2,0.1-0.3,0.3l-1.2,1.1c-0.2,0.2-0.4,0.4-0.6,0.5c-0.2,0.2-0.3,0.3-0.5,0.4c-0.2,0.1-0.4,0.3-0.6,0.4
		c-0.2,0.1-0.4,0.2-0.6,0.3c-0.2,0.1-0.4,0.1-0.5,0.1c-0.3,0-0.9-0.2-1.3-0.3l0.4-2c0.1-0.3,0.1-0.5,0.2-0.7
		c0.1-0.2,0.1-0.4,0.2-0.5c0.1-0.1,0.2-0.2,0.3-0.3c0.1-0.1,0.2-0.1,0.4-0.2c0.1,0,0.3,0,0.5,0c0.2,0,0.3,0,0.5,0.1l0.2-1l-6.3-1.4
		l-0.2,1c0.2,0,0.4,0.1,0.5,0.2c0.2,0.1,0.3,0.2,0.4,0.2c0.1,0.1,0.2,0.2,0.3,0.3c0.1,0.1,0.1,0.3,0.1,0.4c0,0.1,0,0.3,0,0.5
		c0,0.2-0.1,0.4-0.1,0.7l-1.3,6.1c-0.1,0.2-0.1,0.5-0.2,0.6c-0.1,0.2-0.1,0.3-0.2,0.5c-0.1,0.1-0.2,0.2-0.3,0.3
		c-0.1,0.1-0.2,0.1-0.4,0.2c-0.1,0-0.3,0-0.5,0c-0.2,0-0.3,0-0.5-0.1l-0.2,1l6.3,1.4l0.2-1c-0.2,0-0.4-0.1-0.5-0.2
		c-0.2-0.1-0.3-0.1-0.4-0.2c-0.1-0.1-0.2-0.2-0.3-0.3c-0.1-0.1-0.1-0.3-0.1-0.4c0-0.1,0-0.3,0-0.5c0-0.2,0.1-0.4,0.1-0.7l0.7-3.1
		c0.2,0.1,0.6,0.1,0.8,0.2c0.3,0.1,0.6,0.2,0.8,0.3c0.2,0.1,0.4,0.3,0.5,0.5c0.1,0.2,0.2,0.4,0.3,0.7c0.1,0.3,0.2,0.6,0.3,1l0,0
		c0,0.1,0.1,0.3,0.1,0.5c0,0.2,0.1,0.4,0.1,0.7c0,0.3,0.1,0.5,0.1,0.8c0,0.2,0.1,0.5,0.1,0.7c0.1,0.2,0.1,0.4,0.2,0.6
		c0.1,0.2,0.2,0.4,0.3,0.6l0,0c0.1,0.2,0.3,0.4,0.7,0.7c0.2,0.1,0.4,0.3,0.5,0.4c0.2,0.1,0.4,0.2,0.6,0.3l0.4,0.1
		c0.2,0.1,0.5,0.1,0.8,0.1c0.3,0,0.5,0,0.8,0c0.3,0,0.5-0.1,0.7-0.2c0.2-0.1,0.4-0.1,0.6-0.2l-0.1-0.7c-0.1,0-0.2,0.1-0.3,0.1
		c-0.1,0-0.3,0-0.4,0c-0.3-0.1-0.5-0.2-0.8-0.5c-0.2-0.3-0.5-0.6-0.7-1.1c-0.3-0.8-0.5-1.6-0.8-2.3c0-0.1-0.1-0.3-0.2-0.5
		c-0.1-0.2-0.2-0.4-0.3-0.6c-0.1-0.2-0.3-0.4-0.4-0.6c-0.2-0.2-0.3-0.4-0.5-0.6c-0.2-0.2-0.4-0.3-0.6-0.5c-0.2-0.1-0.4-0.2-0.6-0.3
		l-0.5-0.2l0.5-0.1c0.1,0,0.2,0,0.3-0.1c0.1,0,0.2-0.1,0.3-0.2c0.1-0.1,0.3-0.2,0.4-0.3c0.1-0.1,0.3-0.2,0.4-0.3l1-0.8
		C93.1,208.3,93.2,208.1,93.4,208L93.4,208z"/>
	<path class="st8" d="M113,208.6c-0.5,0-0.9,0.1-1.3,0.2c-0.4,0.2-0.7,0.4-0.9,0.7l-5,7.6c-0.4,0.7-0.9,1.2-1.5,1.6
		c-0.5,0.4-1,0.6-1.5,0.6l-0.1,0c-0.4,0-0.8-0.1-1.1-0.3c-0.3-0.2-0.5-0.4-0.7-0.6c-0.2-0.2-0.2-0.4-0.2-0.6c0,0,0-0.1,0-0.2
		c0-0.1,0-0.1,0-0.2c0-0.3,0.1-0.6,0.3-0.8c0.2-0.3,0.4-0.5,0.7-0.6c0.2-0.1,0.3-0.1,0.5-0.1c0.4,0,0.8,0.3,1.3,0.8
		c0.1,0.1,0.2,0.1,0.3,0.2c0.1,0.1,0.2,0.2,0.3,0.2l0.1,0c0.1-0.1,0.2-0.2,0.3-0.3c0.1-0.2,0.2-0.3,0.2-0.4c0-0.1,0-0.3-0.1-0.5
		c-0.1-0.2-0.1-0.3-0.1-0.3l-3.7-6.4c-0.3-0.5-0.5-0.9-0.8-1.1c-0.3-0.2-0.7-0.3-1.2-0.4l-0.3,0l0.1-1.3l6.9,0.4l-0.1,1.3l-0.4,0
		c-0.3,0-0.5,0-0.6,0.1c-0.1,0.1-0.2,0.2-0.2,0.4c0,0.1,0,0.2,0,0.3c0,0.1,0.1,0.2,0.1,0.2l2.4,4.6l2.5-4c0.2-0.3,0.3-0.5,0.3-0.7
		c0-0.3-0.2-0.5-0.7-0.6l-0.9-0.1l0.1-1.3l5.4,0.3L113,208.6L113,208.6z"/>
	<path class="st1" d="M113,208.7c-0.2,0-0.5,0-0.7,0c-0.2,0-0.4,0.1-0.6,0.2c-0.2,0.1-0.3,0.2-0.5,0.3c-0.1,0.1-0.3,0.2-0.4,0.4
		l-5,7.6c-0.2,0.3-0.5,0.6-0.7,0.9c-0.3,0.3-0.5,0.5-0.8,0.7c-0.3,0.2-0.6,0.4-0.8,0.5c-0.3,0.1-0.5,0.1-0.8,0.1l-0.1,0
		c-0.2,0-0.4,0-0.6-0.1c-0.2-0.1-0.4-0.1-0.5-0.2c-0.2-0.1-0.3-0.2-0.4-0.3c-0.1-0.1-0.2-0.2-0.3-0.4c-0.1-0.1-0.1-0.2-0.2-0.4
		c0-0.1-0.1-0.2-0.1-0.3l0-0.1l0-0.2c0,0,0-0.1,0-0.1c0-0.2,0-0.3,0.1-0.5c0.1-0.2,0.1-0.3,0.2-0.4c0.1-0.1,0.2-0.3,0.3-0.4
		c0.1-0.1,0.3-0.2,0.4-0.2c0.1,0,0.2-0.1,0.3-0.1c0.1,0,0.2,0,0.3,0c0.2,0,0.5,0.1,0.7,0.2c0.2,0.1,0.5,0.3,0.7,0.6l0.3,0.2
		c0.1,0,0.1,0.1,0.1,0.1l0,0l0,0c0,0,0.1,0,0.1-0.1c0,0,0.1-0.1,0.1-0.2c0.1-0.1,0.1-0.1,0.1-0.2c0,0,0-0.1,0-0.1c0-0.1,0-0.1,0-0.2
		c0-0.1,0-0.1-0.1-0.2l-0.1-0.2l-0.1-0.1l-3.7-6.4c-0.1-0.2-0.3-0.5-0.4-0.6c-0.1-0.2-0.3-0.3-0.4-0.4c-0.1-0.1-0.3-0.2-0.5-0.2
		c-0.2-0.1-0.4-0.1-0.6-0.1l-0.4,0l0.1-1.5l7.2,0.4l-0.1,1.5l-0.6,0c-0.1,0-0.3,0-0.4,0c-0.1,0-0.2,0-0.2,0c0,0-0.1,0-0.1,0.1
		c0,0,0,0.1-0.1,0.2c0,0,0,0.1,0,0.1c0,0,0,0.1,0,0.1l0,0c0,0.1,0,0.1,0.1,0.2l2.3,4.3l2.4-3.8c0.1-0.1,0.1-0.3,0.2-0.4
		c0-0.1,0.1-0.2,0.1-0.3c0-0.1,0-0.2-0.1-0.3c-0.1-0.1-0.3-0.1-0.5-0.1l-1-0.1l0.1-1.5l5.7,0.4l-0.1,1.5L113,208.7L113,208.7z
		 M112.3,208.5c0.2,0,0.4-0.1,0.6-0.1l0.1-1l-5.1-0.3l-0.1,1l0.8,0c0.3,0,0.5,0.1,0.7,0.2c0.2,0.1,0.2,0.3,0.2,0.5
		c0,0.1,0,0.2-0.1,0.4c0,0.1-0.1,0.3-0.2,0.4c-0.8,1.4-1.8,2.8-2.7,4.2c-0.9-1.6-1.7-3.2-2.6-4.8l0,0c0,0,0-0.1,0-0.1l0,0
		c0-0.1,0-0.1,0-0.2c0-0.1,0-0.1,0-0.2c0-0.1,0-0.2,0.1-0.3c0.1-0.1,0.1-0.2,0.2-0.2c0.1,0,0.2-0.1,0.3-0.1c0.1,0,0.2,0,0.4,0l0.3,0
		l0.1-1l-6.6-0.4l-0.1,1l0.1,0c0.2,0,0.5,0.1,0.7,0.1c0.2,0.1,0.4,0.2,0.6,0.3c0.2,0.1,0.3,0.3,0.5,0.5c0.1,0.2,0.3,0.4,0.4,0.7
		l3.7,6.4c0,0,0,0.1,0.1,0.2l0.1,0.2c0,0.1,0.1,0.2,0.1,0.3c0,0.1,0,0.2,0,0.3c0,0.1,0,0.1-0.1,0.2c0,0.1-0.1,0.1-0.1,0.2
		c-0.1,0.1-0.1,0.2-0.2,0.2c-0.1,0.1-0.1,0.1-0.2,0.1c0,0-0.1,0-0.1,0l0,0c-0.1,0-0.1,0-0.2-0.1c-0.1,0-0.1-0.1-0.2-0.1l-0.2-0.1
		l-0.1-0.1c-0.2-0.2-0.4-0.4-0.6-0.5c-0.2-0.1-0.4-0.2-0.6-0.2c-0.1,0-0.2,0-0.2,0c-0.1,0-0.1,0-0.2,0.1l0,0c-0.1,0-0.2,0.1-0.3,0.2
		c-0.1,0.1-0.2,0.2-0.3,0.3c-0.1,0.1-0.2,0.3-0.2,0.4c0,0.1-0.1,0.3-0.1,0.4l0,0l0,0.2c0,0,0,0.1,0,0.1c0,0.1,0,0.2,0.1,0.2
		c0,0.1,0.1,0.2,0.2,0.3c0.1,0.1,0.2,0.2,0.3,0.3c0.1,0.1,0.2,0.2,0.4,0.3c0.1,0.1,0.3,0.1,0.5,0.2c0.2,0,0.4,0.1,0.6,0.1l0.1,0
		c0.2,0,0.4,0,0.7-0.1c0.2-0.1,0.5-0.2,0.8-0.4c0.3-0.2,0.5-0.4,0.8-0.7c0.2-0.3,0.5-0.5,0.7-0.9l5-7.6c0.1-0.2,0.3-0.3,0.4-0.4
		c0.2-0.1,0.3-0.2,0.5-0.3C111.8,208.6,112.1,208.5,112.3,208.5L112.3,208.5z"/>
	<path class="st8" d="M119.4,214.1l0.1,2.4c0,0.6,0.1,0.9,0.2,1.2c0.1,0.2,0.3,0.4,0.5,0.5c0.2,0.1,0.6,0.1,1.2,0.1l0,1.3l-6.9,0.3
		l0-1.3c0.4,0,0.7,0,1-0.1c0.2-0.1,0.4-0.1,0.5-0.3c0.1-0.1,0.2-0.3,0.2-0.5c0-0.2,0-0.6,0-1l-0.2-6.2c0-0.5-0.1-0.9-0.2-1.2
		c-0.1-0.3-0.3-0.4-0.5-0.5c-0.2-0.1-0.6-0.1-1.2-0.1l0-1.3l6.9-0.3c0.9,0,1.8,0,2.5,0.2c0.7,0.2,1.3,0.5,1.8,1
		c0.5,0.5,0.7,1.2,0.8,2.2c0,0.8-0.2,1.5-0.6,2c-0.4,0.5-1,0.9-1.7,1.1c-0.7,0.2-1.4,0.4-2.3,0.4L119.4,214.1L119.4,214.1z
		 M119.3,213l1.1,0c0.7,0,1.2-0.2,1.6-0.7c0.4-0.4,0.5-1,0.5-1.6c0-0.6-0.2-1.1-0.5-1.6c-0.3-0.4-0.7-0.6-1.3-0.6l-1.5,0.1
		L119.3,213L119.3,213z"/>
	<path class="st1" d="M119.5,214.2l0.1,2.3c0,0.3,0,0.5,0.1,0.7c0,0.2,0.1,0.3,0.1,0.5c0,0.1,0.1,0.2,0.2,0.3
		c0.1,0.1,0.2,0.1,0.3,0.1c0.1,0,0.3,0.1,0.4,0.1c0.2,0,0.4,0,0.7,0l0.1,0l0.1,1.5c-2.4,0.1-4.8,0.2-7.2,0.3l-0.1-1.5l0.1,0
		c0.2,0,0.4,0,0.5,0c0.2,0,0.3,0,0.4-0.1c0.1,0,0.2-0.1,0.3-0.1c0.1,0,0.1-0.1,0.2-0.1c0-0.1,0.1-0.1,0.1-0.2c0-0.1,0.1-0.2,0.1-0.3
		c0-0.1,0-0.2,0-0.4c0-0.2,0-0.4,0-0.6l-0.2-6.2c0-0.3,0-0.5-0.1-0.7c0-0.2-0.1-0.3-0.1-0.5c0-0.1-0.1-0.2-0.2-0.3
		c-0.1-0.1-0.2-0.1-0.3-0.2c-0.1,0-0.3-0.1-0.5-0.1c-0.2,0-0.4,0-0.7,0l-0.1,0l-0.1-1.5l7.1-0.3c0.5,0,0.9,0,1.3,0
		c0.4,0,0.8,0.1,1.2,0.2c0.4,0.1,0.7,0.2,1,0.4c0.3,0.2,0.6,0.4,0.8,0.7c0.3,0.3,0.4,0.6,0.6,1c0.1,0.4,0.2,0.8,0.2,1.3
		c0,0.4,0,0.8-0.1,1.2c-0.1,0.4-0.3,0.7-0.5,0.9c-0.2,0.3-0.5,0.5-0.8,0.7c-0.3,0.2-0.6,0.4-1,0.5c-0.4,0.1-0.7,0.2-1.1,0.3
		c-0.4,0.1-0.8,0.1-1.2,0.1L119.5,214.2L119.5,214.2z M119.3,216.5l-0.1-2.6l2.2-0.1c0.4,0,0.8-0.1,1.2-0.1c0.4-0.1,0.7-0.2,1.1-0.3
		c0.3-0.1,0.6-0.3,0.9-0.5c0.3-0.2,0.5-0.4,0.7-0.7c0.2-0.2,0.3-0.5,0.4-0.8c0.1-0.3,0.1-0.7,0.1-1.1c0-0.5-0.1-0.9-0.2-1.2
		c-0.1-0.3-0.3-0.6-0.5-0.9c-0.2-0.2-0.5-0.4-0.8-0.6c-0.3-0.2-0.6-0.3-1-0.4c-0.4-0.1-0.7-0.1-1.1-0.2c-0.4,0-0.8,0-1.3,0l-6.8,0.3
		l0,1c0.2,0,0.4,0,0.6,0c0.2,0,0.4,0,0.5,0.1c0.1,0,0.3,0.1,0.4,0.2c0.1,0.1,0.2,0.2,0.2,0.4c0,0.1,0.1,0.3,0.1,0.5
		c0,0.2,0,0.4,0.1,0.7l0.2,6.2c0,0.2,0,0.4,0,0.6c0,0.2,0,0.3,0,0.4c0,0.1,0,0.2-0.1,0.3c0,0.1-0.1,0.2-0.2,0.3
		c-0.1,0.1-0.2,0.1-0.3,0.2c-0.1,0.1-0.2,0.1-0.3,0.1c-0.1,0-0.3,0.1-0.4,0.1c-0.1,0-0.3,0-0.4,0l0,1l6.7-0.3l0-1
		c-0.2,0-0.4,0-0.6,0c-0.2,0-0.4,0-0.5-0.1c-0.1,0-0.3-0.1-0.4-0.2c-0.1-0.1-0.2-0.2-0.2-0.4c0-0.1-0.1-0.3-0.1-0.5
		C119.3,217,119.3,216.8,119.3,216.5L119.3,216.5z M119.4,212.8l0.9,0c0.3,0,0.6-0.1,0.8-0.2c0.2-0.1,0.4-0.3,0.6-0.4
		c0.2-0.2,0.3-0.4,0.4-0.7c0.1-0.3,0.1-0.5,0.1-0.9c0-0.3-0.1-0.6-0.1-0.8c-0.1-0.2-0.2-0.5-0.3-0.7c-0.1-0.2-0.3-0.3-0.5-0.4
		c-0.2-0.1-0.4-0.1-0.7-0.1l-1.4,0.1L119.4,212.8L119.4,212.8z M120.4,213.1l-1.2,0l-0.2-4.7l1.7-0.1c0.3,0,0.6,0,0.8,0.1
		c0.2,0.1,0.4,0.3,0.6,0.5c0.2,0.2,0.3,0.5,0.4,0.7c0.1,0.3,0.1,0.6,0.1,0.9c0,0.3,0,0.7-0.1,0.9c-0.1,0.3-0.2,0.5-0.4,0.8
		c-0.2,0.2-0.4,0.4-0.7,0.5C121.1,213,120.8,213.1,120.4,213.1L120.4,213.1z"/>
	<path class="st8" d="M136.9,207.7c-0.2,0.3-0.4,0.6-0.7,1c-0.2,0.4-0.5,0.8-0.7,1.1c-0.2,0.3-0.4,0.6-0.6,0.8
		c-0.2,0.2-0.4,0.4-0.5,0.5c0.5,0,1,0.1,1.5,0.3c0.5,0.2,1,0.5,1.3,0.8c0.4,0.3,0.7,0.6,0.9,0.8l1.5,1.9c0.7,0.7,1.3,1.1,1.8,1
		c0.2,0,0.4-0.1,0.7-0.4l0.4,0.9c-0.3,0.4-0.7,0.7-1.2,0.9c-0.5,0.2-1,0.4-1.5,0.5l-0.4,0.1c-0.5,0-0.9-0.1-1.3-0.2
		c-0.4-0.1-0.7-0.3-0.9-0.5c-0.4-0.3-0.6-0.6-0.9-1c-0.2-0.4-0.5-0.8-0.7-1.3c-0.3-0.5-0.4-0.9-0.6-1.1c-0.4-0.6-0.8-1.1-1.1-1.3
		c-0.3-0.3-0.8-0.4-1.4-0.3l-0.7,0.1l0.4,3c0.1,0.5,0.1,0.9,0.2,1.1c0.1,0.2,0.3,0.4,0.5,0.5c0.2,0.1,0.6,0.1,1.1,0l0.2,1.3
		l-6.6,0.8l-0.2-1.3c0.5-0.1,0.8-0.2,1.1-0.3c0.2-0.1,0.4-0.3,0.4-0.6c0-0.3,0-0.6,0-1.1l-0.8-6.2c-0.1-0.5-0.2-0.9-0.3-1.1
		c-0.1-0.2-0.3-0.4-0.5-0.5c-0.3-0.1-0.6-0.1-1.1,0l-0.2-1.3l6.6-0.8l0.2,1.3c-0.5,0.1-0.9,0.2-1.1,0.3c-0.2,0.1-0.3,0.3-0.4,0.6
		c0,0.3,0,0.6,0,1.2l0.2,1.9l1.1-0.1c0.3-0.1,0.6-0.3,0.8-0.6c0.3-0.3,0.5-0.7,0.7-1.1c0.2-0.4,0.5-0.9,0.8-1.5
		c0.3-0.6,0.5-0.9,0.6-1.1c0.2-0.3,0.5-0.6,0.9-1c0.4-0.3,0.9-0.5,1.4-0.6l0.1,0c0.5-0.1,1,0,1.3,0.2c0.4,0.2,0.6,0.5,0.7,0.9l0,0.2
		c0,0.3,0,0.5-0.1,0.8c-0.1,0.3-0.3,0.5-0.5,0.6c-0.2,0.1-0.3,0.2-0.5,0.2c-0.3,0-0.7-0.1-1.1-0.4c-0.2-0.1-0.4-0.2-0.7-0.1
		C137.1,207.6,136.9,207.7,136.9,207.7L136.9,207.7z"/>
	<path class="st1" d="M137,207.8c-0.1,0.1-0.2,0.3-0.3,0.4c-0.1,0.2-0.2,0.3-0.3,0.6l-0.7,1.1c-0.1,0.2-0.2,0.3-0.3,0.5
		c-0.1,0.1-0.2,0.3-0.3,0.4c-0.1,0.1-0.2,0.2-0.3,0.3c0.1,0,0.3,0,0.4,0.1c0.3,0.1,0.5,0.1,0.8,0.3c0.3,0.1,0.5,0.2,0.7,0.4
		c0.2,0.1,0.4,0.3,0.6,0.4c0.2,0.1,0.4,0.3,0.5,0.4c0.1,0.1,0.3,0.3,0.4,0.4l1.5,1.9c0.3,0.4,0.7,0.6,0.9,0.8
		c0.3,0.2,0.5,0.2,0.7,0.2c0.1,0,0.1,0,0.2-0.1c0.1-0.1,0.2-0.1,0.3-0.3l0.1-0.1l0.5,1.2l-0.1,0.1c-0.2,0.2-0.3,0.4-0.5,0.5
		c-0.2,0.2-0.4,0.3-0.7,0.4c-0.3,0.1-0.5,0.2-0.8,0.3c-0.3,0.1-0.5,0.1-0.8,0.2c-0.1,0-0.3,0-0.4,0.1c-0.2,0-0.5,0-0.7-0.1
		c-0.2,0-0.5-0.1-0.7-0.2c-0.2-0.1-0.4-0.1-0.6-0.2c-0.2-0.1-0.3-0.2-0.4-0.3c-0.2-0.2-0.3-0.3-0.5-0.5c-0.2-0.2-0.3-0.3-0.4-0.5
		c-0.1-0.2-0.2-0.4-0.4-0.6c-0.1-0.2-0.3-0.5-0.4-0.7c-0.1-0.3-0.2-0.5-0.3-0.6c-0.1-0.2-0.2-0.3-0.2-0.4c-0.2-0.3-0.4-0.6-0.6-0.8
		c-0.2-0.2-0.3-0.4-0.5-0.5c-0.1-0.1-0.3-0.2-0.5-0.3c-0.2,0-0.5-0.1-0.8,0l-0.6,0.1l0.4,2.9c0,0.3,0.1,0.5,0.1,0.7
		c0,0.2,0.1,0.3,0.1,0.4c0,0.1,0.1,0.2,0.2,0.2c0.1,0.1,0.2,0.1,0.3,0.1c0.1,0,0.2,0.1,0.4,0.1c0.2,0,0.4,0,0.6,0l0.1,0l0.2,1.5
		c-2.3,0.3-4.6,0.6-6.9,0.9l-0.2-1.5l0.1,0c0.2,0,0.4-0.1,0.6-0.1c0.2,0,0.3-0.1,0.4-0.2c0.1-0.1,0.2-0.1,0.2-0.2
		c0.1-0.1,0.1-0.2,0.1-0.3c0-0.1,0-0.3,0-0.4c0-0.2,0-0.4-0.1-0.6l-0.8-6.2c0-0.2-0.1-0.5-0.1-0.6c0-0.2-0.1-0.3-0.1-0.4
		c0-0.1-0.1-0.2-0.2-0.3c-0.1-0.1-0.2-0.1-0.3-0.2c-0.1,0-0.3-0.1-0.4-0.1c-0.2,0-0.4,0-0.6,0l-0.1,0l-0.2-1.5
		c2.3-0.3,4.6-0.6,6.9-0.9l0.2,1.5l-0.1,0c-0.2,0-0.5,0.1-0.6,0.1c-0.2,0-0.3,0.1-0.4,0.2c-0.1,0.1-0.2,0.1-0.2,0.2
		c-0.1,0.1-0.1,0.2-0.1,0.3c0,0.1,0,0.3,0,0.5c0,0.2,0,0.4,0.1,0.7l0.2,1.8l1-0.1c0.1,0,0.2-0.1,0.4-0.2c0.1-0.1,0.3-0.2,0.4-0.4
		c0.1-0.2,0.3-0.3,0.4-0.5c0.1-0.2,0.2-0.4,0.3-0.6c0.1-0.2,0.2-0.4,0.4-0.7l0.7-1.5c0.1-0.2,0.2-0.3,0.2-0.4
		c0.1-0.2,0.2-0.3,0.4-0.5c0.2-0.2,0.3-0.3,0.5-0.5c0.2-0.2,0.4-0.3,0.7-0.4c0.2-0.1,0.5-0.2,0.8-0.2l0.1,0c0.3,0,0.5,0,0.8,0
		c0.2,0,0.5,0.1,0.7,0.2c0.2,0.1,0.4,0.3,0.5,0.4c0.1,0.2,0.2,0.3,0.3,0.5c0,0.1,0,0.2,0,0.2c0,0.1,0,0.3,0,0.4c0,0.1,0,0.3-0.1,0.4
		c-0.1,0.1-0.1,0.3-0.2,0.4c-0.1,0.1-0.2,0.2-0.3,0.3c-0.1,0.1-0.2,0.1-0.3,0.2c-0.1,0-0.2,0.1-0.2,0.1c-0.2,0-0.4,0-0.6-0.1
		c-0.2-0.1-0.4-0.2-0.6-0.4c-0.1-0.1-0.1-0.1-0.2-0.1c-0.1,0-0.2,0-0.3,0C137.2,207.7,137.1,207.7,137,207.8
		C137,207.8,137,207.8,137,207.8L137,207.8z M136.4,208.1c0.1-0.2,0.2-0.3,0.3-0.5l0,0c0-0.1,0.1-0.1,0.2-0.1c0.1,0,0.2-0.1,0.3-0.1
		c0.2,0,0.3,0,0.4,0c0.1,0,0.2,0.1,0.3,0.2c0.2,0.2,0.4,0.3,0.6,0.3c0.2,0.1,0.3,0.1,0.5,0.1c0,0,0.1,0,0.2-0.1
		c0.1,0,0.1-0.1,0.2-0.1c0.1-0.1,0.2-0.2,0.3-0.2c0.1-0.1,0.1-0.2,0.2-0.3c0-0.1,0.1-0.2,0.1-0.4c0-0.1,0-0.2,0-0.4l0-0.2
		c0-0.1-0.1-0.3-0.2-0.4c-0.1-0.1-0.3-0.2-0.4-0.4c-0.2-0.1-0.4-0.2-0.6-0.2c-0.2,0-0.4,0-0.7,0l-0.1,0c-0.2,0-0.5,0.1-0.7,0.2
		c-0.2,0.1-0.4,0.2-0.6,0.4c-0.2,0.2-0.4,0.3-0.5,0.5c-0.1,0.2-0.3,0.3-0.4,0.5c0,0.1-0.1,0.2-0.2,0.4l-0.4,0.7
		c-0.1,0.3-0.3,0.5-0.4,0.8c-0.1,0.3-0.3,0.5-0.4,0.7c-0.1,0.2-0.2,0.4-0.4,0.6c-0.1,0.2-0.3,0.4-0.4,0.5c-0.1,0.2-0.3,0.3-0.4,0.4
		c-0.2,0.1-0.3,0.2-0.5,0.2c-0.3,0.1-1,0.1-1.3,0.2l-0.3-2.1c0-0.3-0.1-0.5-0.1-0.7c0-0.2,0-0.4,0-0.5c0-0.1,0.1-0.3,0.1-0.4
		c0.1-0.1,0.2-0.2,0.3-0.3c0.1-0.1,0.3-0.1,0.5-0.2c0.2,0,0.3-0.1,0.5-0.1l-0.1-1l-6.3,0.8l0.1,1c0.2,0,0.4,0,0.5,0
		c0.2,0,0.4,0,0.5,0.1c0.1,0,0.3,0.1,0.4,0.2c0.1,0.1,0.2,0.2,0.3,0.3c0.1,0.1,0.1,0.3,0.2,0.5c0,0.2,0.1,0.4,0.1,0.7l0.8,6.2
		c0,0.2,0,0.5,0.1,0.7c0,0.2,0,0.4,0,0.5c0,0.1-0.1,0.3-0.2,0.4c-0.1,0.1-0.2,0.2-0.3,0.3c-0.1,0.1-0.3,0.1-0.5,0.2
		c-0.1,0-0.3,0.1-0.5,0.1l0.1,1l6.4-0.8l-0.1-1c-0.2,0-0.4,0-0.5,0c-0.2,0-0.4,0-0.5-0.1c-0.1,0-0.3-0.1-0.4-0.2
		c-0.1-0.1-0.2-0.2-0.2-0.3c-0.1-0.1-0.1-0.3-0.1-0.5c0-0.2-0.1-0.4-0.1-0.7l-0.4-3.2c0.3,0,0.6-0.1,0.8-0.1c0.3,0,0.6,0,0.9,0
		c0.3,0.1,0.5,0.2,0.6,0.3c0.2,0.1,0.3,0.3,0.5,0.6c0.2,0.2,0.4,0.5,0.6,0.8l0,0c0.1,0.1,0.1,0.2,0.2,0.4c0.1,0.2,0.2,0.4,0.3,0.6
		c0.1,0.3,0.3,0.5,0.4,0.7c0.1,0.2,0.2,0.4,0.4,0.6c0.1,0.2,0.2,0.3,0.4,0.5c0.1,0.2,0.3,0.3,0.5,0.5l0,0c0.1,0.1,0.2,0.1,0.3,0.2
		c0.1,0.1,0.3,0.1,0.5,0.2c0.2,0.1,0.4,0.1,0.6,0.2c0.2,0,0.4,0,0.6,0l0.4-0.1c0.2,0,0.5-0.1,0.7-0.2c0.3-0.1,0.5-0.2,0.7-0.3
		c0.2-0.1,0.5-0.2,0.7-0.4c0.2-0.1,0.3-0.3,0.4-0.4l-0.3-0.7c-0.1,0.1-0.2,0.1-0.2,0.2c-0.1,0.1-0.2,0.1-0.3,0.1
		c-0.3,0-0.6,0-0.9-0.2c-0.3-0.2-0.6-0.5-1-0.8c-0.3-0.3-1.3-1.6-1.5-1.9c-0.1-0.1-0.2-0.2-0.3-0.4c-0.1-0.1-0.3-0.3-0.5-0.4
		c-0.2-0.1-0.4-0.3-0.6-0.4c-0.2-0.1-0.5-0.2-0.7-0.3c-0.2-0.1-0.5-0.2-0.7-0.2c-0.2-0.1-0.5-0.1-0.7-0.1l-0.5,0l0.4-0.2
		c0.1,0,0.2-0.1,0.3-0.2c0.1-0.1,0.2-0.2,0.2-0.3c0.1-0.1,0.2-0.2,0.3-0.4c0.1-0.1,0.2-0.3,0.3-0.4l0.7-1.1
		C136.2,208.5,136.3,208.3,136.4,208.1L136.4,208.1z"/>
	<path class="st8" d="M148,211.7l4-6.7l0-0.1c-0.1-0.3-0.4-0.6-0.8-0.7c-0.5-0.1-0.8-0.1-1.1-0.1l0,0l-0.3-1.2l6.7-1.6l0.3,1.2
		c-0.5,0.1-0.9,0.3-1.1,0.4c-0.2,0.1-0.3,0.4-0.3,0.6c0,0.3,0,0.7,0.2,1.2l1.5,6.1c0.1,0.5,0.3,0.9,0.4,1.1c0.1,0.2,0.3,0.3,0.6,0.4
		c0.3,0,0.6,0,1.2-0.2l0.3,1.2l-6.7,1.6l-0.3-1.2c0.4-0.1,0.7-0.2,0.9-0.3c0.2-0.1,0.4-0.2,0.5-0.4c0.1-0.1,0.1-0.3,0.1-0.6
		c0-0.2-0.1-0.5-0.2-1l-1.2-4.8l-4.1,6.5c0,0,0,0.1,0,0.2c0,0.1,0,0.1,0,0.1c0.1,0.3,0.3,0.5,0.6,0.6c0.3,0.2,0.7,0.2,1.1,0.1
		c0,0,0.1,0,0.1,0c0.1,0,0.1,0,0.1-0.1l0.3,1.2l-6.7,1.6l-0.3-1.2c0.4-0.1,0.7-0.2,0.9-0.3c0.2-0.1,0.4-0.2,0.5-0.4
		c0.1-0.1,0.1-0.3,0.1-0.6c0-0.2-0.1-0.5-0.2-1l-1.5-6.1c-0.1-0.5-0.3-0.9-0.4-1.1c-0.1-0.2-0.3-0.4-0.6-0.4c-0.3,0-0.7,0-1.2,0.1
		L141,205l6.7-1.6l0.3,1.2c-0.5,0.1-0.9,0.3-1.1,0.4c-0.2,0.1-0.3,0.4-0.3,0.6c0,0.3,0,0.7,0.2,1.2L148,211.7L148,211.7z"/>
	<path class="st1" d="M148,211.3l3.8-6.4l0-0.1c0-0.1-0.1-0.3-0.2-0.4c-0.1-0.1-0.3-0.2-0.5-0.2c-0.2,0-0.4-0.1-0.6-0.1
		c-0.2,0-0.3,0-0.4,0l-0.2,0l-0.4-1.5c2.3-0.6,4.7-1.1,7-1.7l0.4,1.5l-0.1,0c-0.3,0.1-0.5,0.1-0.7,0.2c-0.2,0.1-0.3,0.1-0.4,0.2
		c-0.1,0.1-0.2,0.1-0.2,0.2c0,0.1-0.1,0.2-0.1,0.3c0,0.1,0,0.3,0,0.5c0,0.2,0.1,0.4,0.1,0.7l1.5,6.1c0.1,0.3,0.1,0.5,0.2,0.7
		c0.1,0.2,0.1,0.3,0.2,0.4c0.1,0.1,0.1,0.2,0.2,0.2c0.1,0.1,0.2,0.1,0.3,0.1c0.1,0,0.3,0,0.5,0c0.2,0,0.4-0.1,0.7-0.1l0.1,0l0.4,1.5
		c-2.3,0.6-4.7,1.1-7,1.7l-0.4-1.5l0.1,0c0.2,0,0.4-0.1,0.5-0.1c0.2,0,0.3-0.1,0.4-0.1c0.1,0,0.2-0.1,0.2-0.1
		c0.1-0.1,0.1-0.1,0.1-0.2c0-0.1,0.1-0.1,0.1-0.2c0-0.1,0-0.2,0-0.3c0-0.1,0-0.2-0.1-0.4c0-0.2-0.1-0.3-0.1-0.5l-1.1-4.5l-3.9,6.2
		l0,0.2c0,0.1,0.1,0.2,0.2,0.3c0.1,0.1,0.2,0.2,0.3,0.2c0.1,0.1,0.3,0.1,0.5,0.1c0.2,0,0.3,0,0.5-0.1c0.1,0,0.1,0,0.2-0.1l0.1,0
		l0.1,0l0.4,1.5c-2.3,0.6-4.7,1.1-7,1.7l-0.4-1.5l0.1,0c0.2,0,0.4-0.1,0.5-0.1c0.1,0,0.3-0.1,0.4-0.1c0.1,0,0.2-0.1,0.2-0.2
		c0.1-0.1,0.1-0.1,0.1-0.2c0-0.1,0.1-0.1,0.1-0.2c0-0.1,0-0.2,0-0.3c0-0.1,0-0.2-0.1-0.4c0-0.2-0.1-0.3-0.1-0.5l-1.5-6.1
		c-0.1-0.3-0.1-0.5-0.2-0.7c-0.1-0.2-0.1-0.3-0.2-0.4c-0.1-0.1-0.1-0.2-0.2-0.2c-0.1-0.1-0.2-0.1-0.3-0.1c-0.1,0-0.3,0-0.5,0
		c-0.2,0-0.4,0.1-0.7,0.1l-0.1,0l-0.4-1.5c2.3-0.6,4.7-1.1,7-1.7l0.4,1.5l-0.1,0c-0.3,0.1-0.5,0.1-0.7,0.2c-0.2,0.1-0.3,0.1-0.4,0.2
		c-0.1,0.1-0.2,0.1-0.2,0.2c0,0.1-0.1,0.2-0.1,0.3c0,0.1,0,0.3,0,0.5c0,0.2,0.1,0.4,0.1,0.7L148,211.3L148,211.3z M152.1,205.1
		l-4.2,7l-1.2-5.2c-0.1-0.3-0.1-0.5-0.1-0.7c0-0.2,0-0.4,0-0.5c0-0.2,0-0.3,0.1-0.4c0.1-0.1,0.2-0.2,0.3-0.3
		c0.1-0.1,0.3-0.2,0.5-0.2c0.2-0.1,0.3-0.1,0.6-0.2l-0.2-1l-6.5,1.6l0.2,1c0.2,0,0.4-0.1,0.6-0.1c0.2,0,0.4,0,0.5,0
		c0.1,0,0.3,0.1,0.4,0.1c0.1,0.1,0.2,0.2,0.3,0.3c0.1,0.1,0.1,0.3,0.2,0.5c0.1,0.2,0.1,0.4,0.2,0.7l1.5,6.1c0.1,0.2,0.1,0.4,0.1,0.6
		c0,0.2,0,0.3,0.1,0.4c0,0.1,0,0.2,0,0.3c0,0.1-0.1,0.2-0.1,0.3c-0.1,0.1-0.1,0.2-0.2,0.2c-0.1,0.1-0.2,0.1-0.3,0.2
		c-0.1,0.1-0.3,0.1-0.4,0.2c-0.1,0-0.3,0.1-0.4,0.1l0.2,1l6.5-1.6l-0.2-0.9l-0.1,0c-0.2,0.1-0.4,0.1-0.6,0.1c-0.2,0-0.4-0.1-0.6-0.1
		c-0.2-0.1-0.3-0.2-0.4-0.3c-0.1-0.1-0.2-0.3-0.2-0.4c0,0,0-0.1,0-0.1l0-0.2l0-0.1c1.4-2.3,2.8-4.6,4.3-6.9l1.2,5.1
		c0.1,0.2,0.1,0.4,0.1,0.6c0,0.2,0,0.3,0.1,0.4c0,0.1,0,0.2,0,0.3c0,0.1-0.1,0.2-0.1,0.3c-0.1,0.1-0.1,0.2-0.2,0.2
		c-0.1,0.1-0.2,0.1-0.3,0.2c-0.1,0.1-0.3,0.1-0.4,0.2c-0.1,0-0.3,0.1-0.4,0.1l0.2,1l6.5-1.6l-0.2-1c-0.2,0-0.4,0.1-0.6,0.1
		c-0.2,0-0.4,0-0.5,0c-0.1,0-0.3-0.1-0.4-0.1c-0.1-0.1-0.2-0.2-0.3-0.3c-0.1-0.1-0.1-0.3-0.2-0.5c-0.1-0.2-0.1-0.4-0.2-0.7l-1.5-6.1
		c-0.1-0.3-0.1-0.5-0.1-0.7c0-0.2,0-0.4,0-0.5c0-0.2,0-0.3,0.1-0.4c0.1-0.1,0.2-0.2,0.3-0.3c0.1-0.1,0.3-0.2,0.5-0.2
		c0.2-0.1,0.3-0.1,0.6-0.2l-0.2-1l-6.5,1.6l0.2,1c0.1,0,0.2,0,0.4,0c0.2,0,0.4,0,0.6,0.1c0.3,0.1,0.5,0.1,0.6,0.3
		c0.2,0.1,0.3,0.3,0.3,0.5L152.1,205.1L152.1,205.1L152.1,205.1z"/>
	<path class="st8" d="M164.2,204.2l5.2-2l-0.8-2.1c-0.2-0.5-0.4-0.9-0.5-1.1c-0.2-0.2-0.4-0.3-0.6-0.3c-0.3,0-0.6,0.1-1.2,0.3
		l-0.5-1.2l6.5-2.5l0.5,1.2c-0.5,0.2-0.9,0.4-1.1,0.6c-0.2,0.2-0.3,0.4-0.3,0.7c0,0.3,0.1,0.7,0.3,1.2l2.3,5.8
		c0.2,0.5,0.4,0.9,0.5,1.1c0.2,0.2,0.4,0.3,0.6,0.3c0.3,0,0.6-0.1,1.2-0.3l0.5,1.2l-6.5,2.5l-0.5-1.2c0.4-0.1,0.7-0.3,0.9-0.4
		c0.2-0.1,0.3-0.3,0.4-0.4c0.1-0.2,0.1-0.3,0-0.6c0-0.2-0.1-0.5-0.3-0.9l-1-2.6l-5.2,2l1,2.6c0.2,0.5,0.4,0.9,0.5,1.1
		c0.2,0.2,0.4,0.3,0.6,0.3c0.3,0,0.6-0.1,1.2-0.3l0.5,1.2l-6.5,2.5l-0.5-1.2c0.4-0.1,0.7-0.3,0.9-0.4c0.2-0.1,0.3-0.3,0.4-0.4
		c0.1-0.2,0.1-0.3,0-0.6c0-0.2-0.1-0.5-0.3-0.9l-2.3-5.8c-0.2-0.5-0.4-0.9-0.5-1.1c-0.2-0.2-0.4-0.3-0.6-0.3c-0.3,0-0.6,0.1-1.2,0.3
		l-0.5-1.2l6.5-2.5l0.5,1.2c-0.5,0.2-0.9,0.4-1.1,0.6c-0.2,0.2-0.3,0.4-0.3,0.7c0,0.3,0.1,0.7,0.3,1.2L164.2,204.2L164.2,204.2z"/>
	<path class="st1" d="M164.3,204.1l5-1.9l-0.8-2c-0.1-0.3-0.2-0.5-0.3-0.6c-0.1-0.2-0.2-0.3-0.2-0.4c-0.1-0.1-0.1-0.2-0.2-0.2
		c-0.1,0-0.2-0.1-0.3-0.1c-0.1,0-0.3,0-0.5,0.1c-0.2,0-0.4,0.1-0.7,0.2l-0.1,0l-0.6-1.4c2.2-0.9,4.5-1.7,6.7-2.6l0.6,1.4l-0.1,0.1
		c-0.3,0.1-0.5,0.2-0.6,0.3c-0.2,0.1-0.3,0.2-0.4,0.3c-0.1,0.1-0.1,0.2-0.2,0.2c0,0.1,0,0.2,0,0.3c0,0.1,0,0.3,0.1,0.5
		c0.1,0.2,0.1,0.4,0.2,0.7l2.3,5.8c0.1,0.2,0.2,0.5,0.3,0.6c0.1,0.2,0.2,0.3,0.2,0.4c0.1,0.1,0.1,0.1,0.2,0.2c0.1,0,0.2,0.1,0.3,0.1
		c0.1,0,0.3,0,0.4-0.1c0.2,0,0.4-0.1,0.7-0.2l0.1-0.1l0.6,1.4c-2.2,0.9-4.5,1.7-6.7,2.6l-0.6-1.4l0.1,0c0.2-0.1,0.4-0.1,0.5-0.2
		c0.1-0.1,0.3-0.1,0.4-0.2c0.1-0.1,0.2-0.1,0.2-0.2c0.1-0.1,0.1-0.1,0.1-0.2c0-0.1,0-0.1,0-0.2c0-0.1,0-0.2,0-0.3
		c0-0.1-0.1-0.2-0.1-0.4c0-0.2-0.1-0.3-0.2-0.5l-0.9-2.4l-5,1.9l0.9,2.4c0.1,0.3,0.2,0.5,0.3,0.6c0.1,0.2,0.2,0.3,0.2,0.4
		c0.1,0.1,0.1,0.1,0.2,0.2c0.1,0,0.2,0.1,0.3,0.1c0.1,0,0.3,0,0.4-0.1c0.2,0,0.4-0.1,0.7-0.2l0.1-0.1l0.6,1.4
		c-2.2,0.9-4.5,1.7-6.7,2.6l-0.6-1.4l0.1-0.1c0.2-0.1,0.4-0.1,0.5-0.2c0.1-0.1,0.3-0.1,0.4-0.2c0.1-0.1,0.2-0.1,0.2-0.2
		c0.1-0.1,0.1-0.1,0.1-0.2c0-0.1,0-0.1,0-0.2c0-0.1,0-0.2,0-0.3c0-0.1-0.1-0.2-0.1-0.4c0-0.2-0.1-0.3-0.2-0.5l-2.3-5.8
		c-0.1-0.3-0.2-0.5-0.3-0.6c-0.1-0.2-0.2-0.3-0.2-0.4c-0.1-0.1-0.1-0.2-0.2-0.2c-0.1,0-0.2-0.1-0.3-0.1c-0.1,0-0.3,0-0.5,0.1
		c-0.2,0-0.4,0.1-0.7,0.2l-0.1,0l-0.6-1.4c2.2-0.9,4.5-1.7,6.7-2.6l0.6,1.4l-0.1,0.1c-0.3,0.1-0.5,0.2-0.6,0.3
		c-0.2,0.1-0.3,0.2-0.4,0.3c-0.1,0.1-0.1,0.2-0.2,0.2c0,0.1,0,0.2,0,0.3c0,0.1,0,0.3,0.1,0.5c0.1,0.2,0.1,0.4,0.2,0.7L164.3,204.1
		L164.3,204.1z M169.5,202.3l-5.3,2.1l-0.9-2.3c-0.1-0.3-0.2-0.5-0.2-0.7c-0.1-0.2-0.1-0.4-0.1-0.5c0-0.2,0-0.3,0.1-0.4
		c0.1-0.1,0.1-0.2,0.2-0.3c0.1-0.1,0.3-0.2,0.4-0.3c0.2-0.1,0.3-0.2,0.5-0.2l-0.4-0.9l-6.2,2.4l0.4,0.9c0.2-0.1,0.4-0.1,0.6-0.2
		c0.2-0.1,0.4-0.1,0.5-0.1c0.2,0,0.3,0,0.4,0.1c0.1,0.1,0.2,0.2,0.3,0.3c0.1,0.1,0.2,0.3,0.3,0.5c0.1,0.2,0.2,0.4,0.3,0.7l2.3,5.8
		c0.1,0.2,0.1,0.4,0.2,0.5c0.1,0.2,0.1,0.3,0.1,0.4c0,0.1,0,0.2,0,0.3c0,0.1,0,0.2-0.1,0.3c0,0.1-0.1,0.2-0.2,0.3
		c-0.1,0.1-0.2,0.2-0.3,0.2c-0.1,0.1-0.2,0.1-0.4,0.2c-0.1,0.1-0.2,0.1-0.4,0.2l0.4,0.9l6.2-2.4l-0.4-0.9c-0.2,0.1-0.4,0.1-0.6,0.2
		c-0.2,0.1-0.4,0.1-0.5,0.1c-0.2,0-0.3,0-0.4-0.1c-0.1-0.1-0.2-0.1-0.3-0.3c-0.1-0.1-0.2-0.3-0.3-0.4c-0.1-0.2-0.2-0.4-0.3-0.7
		l-1-2.7c1.8-0.7,3.7-1.4,5.5-2.1l1,2.7c0.1,0.2,0.1,0.4,0.2,0.5c0.1,0.2,0.1,0.3,0.1,0.4c0,0.1,0,0.2,0,0.3c0,0.1,0,0.2-0.1,0.3
		c0,0.1-0.1,0.2-0.2,0.3c-0.1,0.1-0.2,0.2-0.3,0.2c-0.1,0.1-0.2,0.1-0.4,0.2c-0.1,0.1-0.2,0.1-0.4,0.2l0.4,0.9l6.2-2.4l-0.4-0.9
		c-0.2,0.1-0.4,0.1-0.6,0.2c-0.2,0.1-0.4,0.1-0.5,0.1c-0.2,0-0.3,0-0.4-0.1c-0.1-0.1-0.2-0.1-0.3-0.3c-0.1-0.1-0.2-0.3-0.3-0.4
		c-0.1-0.2-0.2-0.4-0.3-0.7l-2.3-5.8c-0.1-0.3-0.2-0.5-0.2-0.7c-0.1-0.2-0.1-0.4-0.1-0.5c0-0.2,0-0.3,0.1-0.4
		c0.1-0.1,0.1-0.2,0.2-0.3c0.1-0.1,0.3-0.2,0.4-0.3c0.2-0.1,0.3-0.2,0.5-0.2l-0.4-0.9l-6.2,2.4l0.4,0.9c0.2-0.1,0.4-0.1,0.6-0.2
		c0.2-0.1,0.4-0.1,0.5-0.1c0.2,0,0.3,0,0.4,0.1c0.1,0.1,0.2,0.2,0.3,0.3c0.1,0.1,0.2,0.3,0.3,0.5c0.1,0.2,0.2,0.4,0.3,0.7l0.9,2.3
		L169.5,202.3L169.5,202.3z"/>
	<path class="st8" d="M187.2,194.3c0.5,0.9,0.7,1.8,0.7,2.7c0,0.9-0.1,1.7-0.4,2.5c-0.3,0.8-0.8,1.5-1.4,2.2
		c-0.6,0.7-1.4,1.2-2.3,1.6c-1.2,0.6-2.4,0.9-3.6,0.9c-1.2,0-2.3-0.3-3.3-0.9c-1-0.6-1.8-1.5-2.4-2.8c-0.4-0.9-0.7-1.8-0.7-2.7
		c0-0.9,0.1-1.7,0.4-2.6c0.3-0.8,0.8-1.5,1.4-2.2c0.6-0.7,1.4-1.2,2.3-1.6c1.2-0.6,2.4-0.9,3.6-0.9c1.2,0,2.3,0.3,3.3,0.9
		C185.8,192.2,186.6,193.1,187.2,194.3L187.2,194.3z M184,195.8c-0.7-1.3-1.5-2.4-2.4-3c-0.9-0.7-2-0.7-3.2-0.1
		c-0.8,0.4-1.3,0.9-1.5,1.7c-0.2,0.7-0.3,1.5-0.1,2.3c0.2,0.8,0.4,1.6,0.8,2.4c0.7,1.3,1.5,2.3,2.4,3c1,0.7,2,0.7,3.2,0.2
		c1.2-0.6,1.8-1.5,1.8-2.6C185,198.4,184.7,197.2,184,195.8L184,195.8z"/>
	<path class="st1" d="M187.3,194.2c0.2,0.5,0.4,0.9,0.5,1.4c0.1,0.5,0.2,0.9,0.2,1.4c0,0.5,0,0.9-0.1,1.3c-0.1,0.4-0.2,0.9-0.4,1.3
		c-0.2,0.4-0.4,0.8-0.6,1.2c-0.2,0.4-0.5,0.7-0.9,1.1c-0.3,0.3-0.7,0.6-1.1,0.9c-0.4,0.3-0.8,0.5-1.2,0.7c-0.6,0.3-1.2,0.5-1.8,0.7
		c-0.6,0.2-1.2,0.2-1.8,0.3c-0.6,0-1.2-0.1-1.8-0.2c-0.6-0.2-1.1-0.4-1.6-0.7c-0.5-0.3-1-0.7-1.4-1.2c-0.4-0.5-0.8-1-1.1-1.6
		c-0.2-0.5-0.4-0.9-0.5-1.4c-0.1-0.5-0.2-0.9-0.2-1.4c0-0.5,0-0.9,0.1-1.3c0.1-0.4,0.2-0.9,0.3-1.3c0.2-0.4,0.4-0.8,0.6-1.2
		c0.2-0.4,0.5-0.7,0.8-1.1c0.3-0.3,0.7-0.6,1.1-0.9c0.4-0.3,0.8-0.5,1.2-0.8c0.6-0.3,1.2-0.5,1.8-0.7c0.6-0.2,1.2-0.2,1.8-0.2
		c0.6,0,1.2,0.1,1.8,0.2c0.6,0.2,1.1,0.4,1.6,0.7c0.5,0.3,1,0.7,1.4,1.2C186.7,193.1,187,193.6,187.3,194.2L187.3,194.2z
		 M187.6,195.7c-0.1-0.4-0.3-0.9-0.5-1.3c-0.3-0.6-0.6-1.1-1-1.6c-0.4-0.4-0.8-0.8-1.3-1.1c-0.5-0.3-1-0.5-1.6-0.7
		c-0.5-0.1-1.1-0.2-1.7-0.2c-0.6,0-1.2,0.1-1.8,0.2c-0.6,0.2-1.2,0.4-1.8,0.7c-0.4,0.2-0.8,0.5-1.2,0.7c-0.4,0.3-0.7,0.6-1,0.9
		c-0.3,0.3-0.6,0.7-0.8,1c-0.2,0.4-0.4,0.7-0.6,1.1c-0.2,0.4-0.3,0.8-0.3,1.2c-0.1,0.4-0.1,0.8-0.1,1.3c0,0.4,0.1,0.9,0.2,1.3
		c0.1,0.4,0.3,0.9,0.5,1.3c0.3,0.6,0.6,1.1,1,1.6c0.4,0.4,0.8,0.8,1.3,1.1c0.5,0.3,1,0.5,1.5,0.7c0.5,0.1,1.1,0.2,1.7,0.2
		c0.6,0,1.2-0.1,1.8-0.2c0.6-0.2,1.2-0.4,1.8-0.7c0.4-0.2,0.8-0.5,1.2-0.7c0.4-0.3,0.7-0.6,1-0.9c0.3-0.3,0.6-0.7,0.8-1
		c0.2-0.4,0.4-0.7,0.6-1.1c0.2-0.4,0.3-0.8,0.3-1.2c0.1-0.4,0.1-0.8,0.1-1.3C187.8,196.5,187.7,196.1,187.6,195.7L187.6,195.7z
		 M183.9,195.9c-0.3-0.7-0.7-1.2-1.1-1.7c-0.4-0.5-0.8-0.9-1.3-1.3c-0.4-0.3-0.9-0.5-1.4-0.5c-0.5,0-1.1,0.1-1.6,0.4
		c-0.4,0.2-0.7,0.4-0.9,0.7c-0.2,0.3-0.4,0.6-0.5,0.9c-0.1,0.4-0.2,0.7-0.2,1.1c0,0.4,0,0.8,0.1,1.2c0.1,0.4,0.2,0.8,0.3,1.2
		c0.1,0.4,0.3,0.8,0.5,1.2c0.3,0.6,0.7,1.2,1.1,1.7c0.4,0.5,0.8,0.9,1.3,1.2c0.5,0.3,0.9,0.5,1.4,0.5c0.5,0,1-0.1,1.6-0.4
		c0.6-0.3,1-0.6,1.3-1.1c0.3-0.4,0.4-0.9,0.4-1.4c0-0.6-0.1-1.2-0.3-1.8C184.5,197.2,184.3,196.5,183.9,195.9L183.9,195.9z
		 M183.1,194c0.4,0.5,0.8,1.1,1.1,1.8c0.3,0.7,0.6,1.3,0.8,1.9c0.2,0.6,0.3,1.2,0.3,1.8c0,0.6-0.2,1.1-0.5,1.6
		c-0.3,0.5-0.8,0.8-1.4,1.2c-0.6,0.3-1.2,0.4-1.7,0.4c-0.6,0-1.1-0.2-1.6-0.6c-0.5-0.4-0.9-0.8-1.4-1.3c-0.4-0.5-0.8-1.1-1.1-1.8
		c-0.2-0.4-0.4-0.8-0.5-1.2c-0.1-0.4-0.2-0.8-0.3-1.2c-0.1-0.4-0.1-0.8-0.1-1.2c0-0.4,0.1-0.8,0.2-1.2c0.1-0.4,0.3-0.7,0.6-1
		c0.3-0.3,0.6-0.5,1-0.7c0.6-0.3,1.2-0.5,1.8-0.4c0.6,0,1.1,0.2,1.6,0.6C182.2,193,182.7,193.5,183.1,194L183.1,194z"/>
</g>
</svg>
