<svg width="49" height="49" viewBox="0 0 49 49" fill="none" xmlns="http://www.w3.org/2000/svg">
<path fill-rule="evenodd" clip-rule="evenodd" d="M24.3053 2.25928C11.9148 2.25928 1.87036 12.3038 1.87036 24.6943C1.87036 37.0848 11.9148 47.1292 24.3053 47.1292C36.6958 47.1292 46.7403 37.0848 46.7403 24.6943C46.7403 12.3038 36.6958 2.25928 24.3053 2.25928ZM0 24.6943C0 11.2708 10.8819 0.388916 24.3053 0.388916C37.7288 0.388916 48.6107 11.2708 48.6107 24.6943C48.6107 38.1177 37.7288 48.9996 24.3053 48.9996C10.8819 48.9996 0 38.1177 0 24.6943Z" fill="#DEDEDE"/>
<path fill-rule="evenodd" clip-rule="evenodd" d="M24.0623 12.4842L35.065 20.4843L30.8673 33.4102H17.2672L13.0591 20.4846L24.0623 12.4842ZM15.2583 21.198L18.6252 31.5398H29.5081L32.8666 21.1984L24.0623 14.7967L15.2583 21.198Z" fill="#DEDEDE"/>
<path fill-rule="evenodd" clip-rule="evenodd" d="M31.3214 1.59236C31.6432 1.99634 31.5765 2.5847 31.1725 2.9065L24.0628 8.56987L17.0836 3.01917C16.6793 2.69767 16.6123 2.10936 16.9338 1.70513C17.2553 1.3009 17.8436 1.23383 18.2478 1.55532L24.0619 6.17938L30.0072 1.44354C30.4112 1.12175 30.9996 1.18837 31.3214 1.59236Z" fill="#DEDEDE"/>
<path fill-rule="evenodd" clip-rule="evenodd" d="M24.0621 6.43942C24.5786 6.43942 24.9973 6.85812 24.9973 7.3746V13.6403C24.9973 14.1568 24.5786 14.5755 24.0621 14.5755C23.5456 14.5755 23.127 14.1568 23.127 13.6403V7.3746C23.127 6.85812 23.5456 6.43942 24.0621 6.43942Z" fill="#DEDEDE"/>
<path fill-rule="evenodd" clip-rule="evenodd" d="M43.4119 9.91821C43.8976 10.0941 44.1486 10.6303 43.9728 11.116L41.2343 18.6768L48.2382 23.947C48.6509 24.2576 48.7337 24.8439 48.4231 25.2566C48.1126 25.6693 47.5263 25.7521 47.1136 25.4415L39.0049 19.3399L42.2142 10.479C42.3901 9.99341 42.9263 9.74233 43.4119 9.91821Z" fill="#DEDEDE"/>
<path fill-rule="evenodd" clip-rule="evenodd" d="M33.3005 37.2096L43.3548 37.3099C43.8713 37.315 44.2858 37.7379 44.2806 38.2543C44.2755 38.7708 43.8526 39.1853 43.3362 39.1801L34.6307 39.0933L31.7639 47.4332C31.596 47.9217 31.064 48.1815 30.5755 48.0136C30.0871 47.8457 29.8272 47.3136 29.9951 46.8252L33.3005 37.2096Z" fill="#DEDEDE"/>
<path fill-rule="evenodd" clip-rule="evenodd" d="M4.2644 38.1515C4.2644 37.635 4.6831 37.2163 5.19958 37.2163H14.5633L17.637 46.5178C17.7991 47.0082 17.5329 47.5372 17.0425 47.6992C16.5521 47.8613 16.0232 47.5951 15.8611 47.1047L13.2115 39.0867H5.19958C4.6831 39.0867 4.2644 38.668 4.2644 38.1515Z" fill="#DEDEDE"/>
<path fill-rule="evenodd" clip-rule="evenodd" d="M4.80135 10.4931C5.28964 10.3248 5.82192 10.5842 5.99024 11.0725L8.84792 19.3628L1.53126 25.4148C1.13328 25.744 0.543792 25.6882 0.214597 25.2903C-0.114597 24.8923 -0.058834 24.3028 0.339147 23.9736L6.65743 18.7474L4.22198 11.682C4.05367 11.1937 4.31306 10.6614 4.80135 10.4931Z" fill="#DEDEDE"/>
<path fill-rule="evenodd" clip-rule="evenodd" d="M6.85198 18.8039C6.9907 18.3064 7.50647 18.0156 8.00398 18.1543L14.41 19.9405C14.9075 20.0792 15.1983 20.595 15.0596 21.0925C14.9209 21.59 14.4051 21.8808 13.9076 21.7421L7.50162 19.9559C7.00412 19.8172 6.71326 19.3014 6.85198 18.8039Z" fill="#DEDEDE"/>
<path fill-rule="evenodd" clip-rule="evenodd" d="M18.4902 31.7142C18.9104 32.0146 19.0075 32.5987 18.7071 33.0189L14.6484 38.6954C14.348 39.1156 13.7639 39.2126 13.3437 38.9122C12.9236 38.6118 12.8265 38.0277 13.1269 37.6076L17.1856 31.931C17.486 31.5109 18.0701 31.4138 18.4902 31.7142Z" fill="#DEDEDE"/>
<path fill-rule="evenodd" clip-rule="evenodd" d="M29.6693 31.6964C30.0993 31.4102 30.6798 31.5268 30.966 31.9567L34.7441 37.6333C35.0303 38.0632 34.9137 38.6438 34.4838 38.9299C34.0538 39.2161 33.4733 39.0996 33.1871 38.6696L29.409 32.993C29.1228 32.5631 29.2394 31.9825 29.6693 31.6964Z" fill="#DEDEDE"/>
<path fill-rule="evenodd" clip-rule="evenodd" d="M41.0151 18.74C41.1632 19.2348 40.8822 19.756 40.3874 19.9041L34.2339 21.7464C33.7391 21.8946 33.2179 21.6136 33.0698 21.1188C32.9217 20.624 33.2027 20.1028 33.6975 19.9547L39.851 18.1124C40.3457 17.9642 40.8669 18.2452 41.0151 18.74Z" fill="#DEDEDE"/>
</svg>
